<svg width="64" height="64" viewBox="0 0 64 64" fill="none" xmlns="http://www.w3.org/2000/svg">
<path fill-rule="evenodd" clip-rule="evenodd" d="M29.216 47.5346C28.3973 47.5346 27.5707 47.3638 26.8 47.0118C25.072 46.2199 24 44.6491 24 42.9074V21.102C24 19.3604 25.072 17.7895 26.8 16.9977C28.752 16.1048 31.0667 16.3662 32.6907 17.6679L46.288 28.5732C47.3787 29.4427 48 30.6953 48 32.0047C48 33.3142 47.3787 34.5667 46.288 35.4363L32.6907 46.339C31.7093 47.1283 30.472 47.5346 29.216 47.5346Z" fill="url(#paint0_linear_2418_174495)"/>
<mask id="mask0_2418_174495" style="mask-type:alpha" maskUnits="userSpaceOnUse" x="24" y="16" width="24" height="32">
<path fill-rule="evenodd" clip-rule="evenodd" d="M29.216 47.5346C28.3973 47.5346 27.5707 47.3638 26.8 47.0118C25.072 46.2199 24 44.6491 24 42.9074V21.102C24 19.3604 25.072 17.7895 26.8 16.9977C28.752 16.1048 31.0667 16.3662 32.6907 17.6679L46.288 28.5732C47.3787 29.4427 48 30.6953 48 32.0047C48 33.3142 47.3787 34.5667 46.288 35.4363L32.6907 46.339C31.7093 47.1283 30.472 47.5346 29.216 47.5346Z" fill="white"/>
</mask>
<g mask="url(#mask0_2418_174495)">
</g>
<defs>
<linearGradient id="paint0_linear_2418_174495" x1="25.2994" y1="-4.06788" x2="61.876" y2="7.81263" gradientUnits="userSpaceOnUse">
<stop stop-color="#6A36FF"/>
<stop offset="1" stop-color="#AC5FE6"/>
</linearGradient>
</defs>
</svg>
