<svg width="20" height="20" viewBox="0 0 20 20" fill="none" xmlns="http://www.w3.org/2000/svg">
<path fill-rule="evenodd" clip-rule="evenodd" d="M9.99994 13.3333C9.80994 13.3333 9.62078 13.2692 9.46661 13.14L4.46661 8.97334C4.11328 8.67917 4.06494 8.15334 4.35994 7.80001C4.65411 7.44667 5.17911 7.39917 5.53328 7.69334L10.0091 11.4233L14.4774 7.82751C14.8358 7.53917 15.3608 7.59584 15.6491 7.95417C15.9374 8.31251 15.8808 8.83667 15.5224 9.12584L10.5224 13.1492C10.3699 13.2717 10.1849 13.3333 9.99994 13.3333Z" fill="#03133D"/>
<mask id="mask0_3355_21786" style="mask-type:alpha" maskUnits="userSpaceOnUse" x="4" y="7" width="12" height="7">
<path fill-rule="evenodd" clip-rule="evenodd" d="M9.99994 13.3333C9.80994 13.3333 9.62078 13.2692 9.46661 13.14L4.46661 8.97334C4.11328 8.67917 4.06494 8.15334 4.35994 7.80001C4.65411 7.44667 5.17911 7.39917 5.53328 7.69334L10.0091 11.4233L14.4774 7.82751C14.8358 7.53917 15.3608 7.59584 15.6491 7.95417C15.9374 8.31251 15.8808 8.83667 15.5224 9.12584L10.5224 13.1492C10.3699 13.2717 10.1849 13.3333 9.99994 13.3333Z" fill="white"/>
</mask>
<g mask="url(#mask0_3355_21786)">
<rect width="20" height="20" fill="white"/>
</g>
</svg>
