<svg width="20" height="20" viewBox="0 0 20 20" fill="none" xmlns="http://www.w3.org/2000/svg">
<path fill-rule="evenodd" clip-rule="evenodd" d="M4.16732 10.8333H14.0548L11.0273 14.4666C10.7323 14.82 10.7807 15.3458 11.134 15.64C11.4882 15.935 12.0132 15.8866 12.3082 15.5333L16.4748 10.5333C16.5073 10.4941 16.5232 10.4483 16.5473 10.405C16.5673 10.37 16.5915 10.34 16.6065 10.3016C16.644 10.2058 16.6665 10.105 16.6665 10.0033C16.6665 10.0025 16.6673 10.0008 16.6673 9.99996C16.6673 9.99913 16.6665 9.99746 16.6665 9.99663C16.6665 9.89496 16.644 9.79413 16.6065 9.69829C16.5915 9.65996 16.5673 9.62996 16.5473 9.59496C16.5232 9.55163 16.5073 9.50579 16.4748 9.46663L12.3082 4.46663C12.1423 4.26913 11.9057 4.16663 11.6673 4.16663C11.479 4.16663 11.2898 4.22996 11.134 4.35996C10.7807 4.65413 10.7323 5.17996 11.0273 5.53329L14.0548 9.16663H4.16732C3.70732 9.16663 3.33398 9.53996 3.33398 9.99996C3.33398 10.46 3.70732 10.8333 4.16732 10.8333Z" fill="white"/>
<mask id="mask0_1923_33249" style="mask-type:alpha" maskUnits="userSpaceOnUse" x="3" y="4" width="14" height="12">
<path fill-rule="evenodd" clip-rule="evenodd" d="M4.16732 10.8333H14.0548L11.0273 14.4666C10.7323 14.82 10.7807 15.3458 11.134 15.64C11.4882 15.935 12.0132 15.8866 12.3082 15.5333L16.4748 10.5333C16.5073 10.4941 16.5232 10.4483 16.5473 10.405C16.5673 10.37 16.5915 10.34 16.6065 10.3016C16.644 10.2058 16.6665 10.105 16.6665 10.0033C16.6665 10.0025 16.6673 10.0008 16.6673 9.99996C16.6673 9.99913 16.6665 9.99746 16.6665 9.99663C16.6665 9.89496 16.644 9.79413 16.6065 9.69829C16.5915 9.65996 16.5673 9.62996 16.5473 9.59496C16.5232 9.55163 16.5073 9.50579 16.4748 9.46663L12.3082 4.46663C12.1423 4.26913 11.9057 4.16663 11.6673 4.16663C11.479 4.16663 11.2898 4.22996 11.134 4.35996C10.7807 4.65413 10.7323 5.17996 11.0273 5.53329L14.0548 9.16663H4.16732C3.70732 9.16663 3.33398 9.53996 3.33398 9.99996C3.33398 10.46 3.70732 10.8333 4.16732 10.8333Z" fill="white"/>
</mask>
<g mask="url(#mask0_1923_33249)">
<rect width="20" height="20" fill="white"/>
</g>
</svg>
