<svg width="32" height="32" viewBox="0 0 32 32" fill="none" xmlns="http://www.w3.org/2000/svg">
<path d="M25.7665 7.70379L24.9351 8.25936L24.9351 8.25936L25.7665 7.70379ZM25.7665 21.6299L24.9351 21.0743L25.7665 21.6299ZM24.2951 23.1013L23.7395 22.2699L24.2951 23.1013ZM18.6654 23.9983L18.661 22.9984C18.1104 23.0008 17.6654 23.4478 17.6654 23.9983H18.6654ZM18.6654 24.0002L19.5598 24.4474C19.6292 24.3085 19.6654 24.1554 19.6654 24.0002H18.6654ZM16.8931 27.5446L17.7876 27.9919L16.8931 27.5446ZM15.1043 27.5446L15.9987 27.0974H15.9987L15.1043 27.5446ZM13.332 24.0002H12.332C12.332 24.1554 12.3682 24.3085 12.4376 24.4474L13.332 24.0002ZM13.332 23.9983H14.332C14.332 23.4478 13.887 23.0008 13.3364 22.9984L13.332 23.9983ZM7.70232 23.1013L7.14675 23.9328H7.14675L7.70232 23.1013ZM6.23086 21.6299L5.39939 22.1854L5.39939 22.1854L6.23086 21.6299ZM6.23086 7.70379L7.06233 8.25936V8.25936L6.23086 7.70379ZM7.70232 6.23232L8.25789 7.06379H8.25789L7.70232 6.23232ZM24.2951 6.23232L23.7395 7.06379L23.7395 7.06379L24.2951 6.23232ZM27.6654 14.6668C27.6654 12.815 27.6666 11.3509 27.5479 10.1841C27.4275 9.00056 27.1755 8.01251 26.598 7.14822L24.9351 8.25936C25.2564 8.74026 25.4538 9.36111 25.5581 10.3865C25.6642 11.4286 25.6654 12.7734 25.6654 14.6668H27.6654ZM26.598 22.1854C27.1755 21.3211 27.4275 20.3331 27.5479 19.1496C27.6666 17.9828 27.6654 16.5186 27.6654 14.6668H25.6654C25.6654 16.5603 25.6642 17.9051 25.5581 18.9472C25.4538 19.9725 25.2564 20.5934 24.9351 21.0743L26.598 22.1854ZM24.8506 23.9328C25.5422 23.4707 26.1359 22.877 26.598 22.1854L24.9351 21.0743C24.6189 21.5475 24.2127 21.9537 23.7395 22.2699L24.8506 23.9328ZM18.6697 24.9983C20.1034 24.9921 21.2797 24.965 22.2553 24.8302C23.247 24.6931 24.0958 24.4372 24.8506 23.9328L23.7395 22.2699C23.3193 22.5507 22.7916 22.737 21.9815 22.849C21.1552 22.9632 20.1042 22.9921 18.661 22.9984L18.6697 24.9983ZM19.6654 24.0002V23.9983H17.6654V24.0002H19.6654ZM17.7876 27.9919L19.5598 24.4474L17.7709 23.5529L15.9987 27.0974L17.7876 27.9919ZM14.2098 27.9919C14.9469 29.466 17.0505 29.466 17.7876 27.9919L15.9987 27.0974L14.2098 27.9919ZM12.4376 24.4474L14.2098 27.9919L15.9987 27.0974L14.2265 23.5529L12.4376 24.4474ZM12.332 23.9983V24.0002H14.332V23.9983H12.332ZM7.14675 23.9328C7.90164 24.4372 8.75039 24.6931 9.74207 24.8302C10.7177 24.965 11.894 24.9921 13.3277 24.9983L13.3364 22.9984C11.8932 22.9921 10.8422 22.9632 10.0159 22.849C9.20577 22.737 8.67814 22.5507 8.25789 22.2699L7.14675 23.9328ZM5.39939 22.1854C5.86146 22.877 6.45522 23.4707 7.14675 23.9328L8.25789 22.2699C7.78474 21.9537 7.37848 21.5475 7.06233 21.0743L5.39939 22.1854ZM4.33203 14.6668C4.33203 16.5186 4.33082 17.9828 4.44952 19.1496C4.56992 20.3331 4.82189 21.3211 5.39939 22.1854L7.06233 21.0743C6.741 20.5934 6.54356 19.9725 6.43925 18.9472C6.33324 17.9051 6.33203 16.5603 6.33203 14.6668H4.33203ZM5.39939 7.14822C4.82189 8.01251 4.56992 9.00056 4.44952 10.1841C4.33082 11.3509 4.33203 12.815 4.33203 14.6668H6.33203C6.33203 12.7734 6.33324 11.4286 6.43925 10.3865C6.54356 9.36111 6.741 8.74026 7.06233 8.25936L5.39939 7.14822ZM7.14675 5.40086C6.45522 5.86293 5.86146 6.45668 5.39939 7.14822L7.06233 8.25936C7.37848 7.7862 7.78474 7.37995 8.25789 7.06379L7.14675 5.40086ZM14.6654 4.3335C12.8136 4.3335 11.3494 4.33229 10.1826 4.45098C8.9991 4.57138 8.01105 4.82335 7.14675 5.40086L8.25789 7.06379C8.73879 6.74247 9.35965 6.54503 10.385 6.44072C11.4271 6.3347 12.7719 6.3335 14.6654 6.3335V4.3335ZM17.332 4.3335H14.6654V6.3335H17.332V4.3335ZM24.8506 5.40086C23.9863 4.82335 22.9983 4.57138 21.8148 4.45098C20.648 4.33229 19.1838 4.3335 17.332 4.3335V6.3335C19.2255 6.3335 20.5703 6.3347 21.6124 6.44072C22.6377 6.54503 23.2586 6.74247 23.7395 7.06379L24.8506 5.40086ZM26.598 7.14822C26.1359 6.45668 25.5422 5.86293 24.8506 5.40085L23.7395 7.06379C24.2127 7.37995 24.6189 7.7862 24.9351 8.25936L26.598 7.14822Z" fill="white"/>
<ellipse cx="21.3333" cy="14.6668" rx="1.33333" ry="1.33333" fill="white" stroke="white" stroke-linecap="round"/>
<circle cx="16.0013" cy="14.6668" r="1.33333" fill="white" stroke="white" stroke-linecap="round"/>
<circle cx="10.6654" cy="14.6668" r="1.33333" fill="white" stroke="white" stroke-linecap="round"/>
</svg>
