<svg width="32" height="32" viewBox="0 0 32 32" fill="none" xmlns="http://www.w3.org/2000/svg">
<path d="M18.6667 14.6665H17.3333V9.33317H20C20.3536 9.33317 20.6928 9.47365 20.9428 9.7237C21.1929 9.97374 21.3333 10.3129 21.3333 10.6665C21.3333 11.0201 21.4738 11.3593 21.7239 11.6093C21.9739 11.8594 22.313 11.9998 22.6667 11.9998C23.0203 11.9998 23.3594 11.8594 23.6095 11.6093C23.8595 11.3593 24 11.0201 24 10.6665C24 9.60564 23.5786 8.58822 22.8284 7.83808C22.0783 7.08793 21.0609 6.6665 20 6.6665H17.3333V3.99984C17.3333 3.64622 17.1929 3.30708 16.9428 3.05703C16.6928 2.80698 16.3536 2.6665 16 2.6665C15.6464 2.6665 15.3072 2.80698 15.0572 3.05703C14.8071 3.30708 14.6667 3.64622 14.6667 3.99984V6.6665H13.3333C11.9188 6.6665 10.5623 7.22841 9.5621 8.2286C8.5619 9.2288 8 10.5853 8 11.9998C8 13.4143 8.5619 14.7709 9.5621 15.7711C10.5623 16.7713 11.9188 17.3332 13.3333 17.3332H14.6667V22.6665H12C11.6464 22.6665 11.3072 22.526 11.0572 22.276C10.8071 22.0259 10.6667 21.6868 10.6667 21.3332C10.6667 20.9795 10.5262 20.6404 10.2761 20.3904C10.0261 20.1403 9.68696 19.9998 9.33333 19.9998C8.97971 19.9998 8.64057 20.1403 8.39052 20.3904C8.14048 20.6404 8 20.9795 8 21.3332C8 22.394 8.42143 23.4115 9.17157 24.1616C9.92172 24.9117 10.9391 25.3332 12 25.3332H14.6667V27.9998C14.6667 28.3535 14.8071 28.6926 15.0572 28.9426C15.3072 29.1927 15.6464 29.3332 16 29.3332C16.3536 29.3332 16.6928 29.1927 16.9428 28.9426C17.1929 28.6926 17.3333 28.3535 17.3333 27.9998V25.3332H18.6667C20.0812 25.3332 21.4377 24.7713 22.4379 23.7711C23.4381 22.7709 24 21.4143 24 19.9998C24 18.5854 23.4381 17.2288 22.4379 16.2286C21.4377 15.2284 20.0812 14.6665 18.6667 14.6665ZM14.6667 14.6665H13.3333C12.6261 14.6665 11.9478 14.3856 11.4477 13.8855C10.9476 13.3854 10.6667 12.7071 10.6667 11.9998C10.6667 11.2926 10.9476 10.6143 11.4477 10.1142C11.9478 9.61412 12.6261 9.33317 13.3333 9.33317H14.6667V14.6665ZM18.6667 22.6665H17.3333V17.3332H18.6667C19.3739 17.3332 20.0522 17.6141 20.5523 18.1142C21.0524 18.6143 21.3333 19.2926 21.3333 19.9998C21.3333 20.7071 21.0524 21.3854 20.5523 21.8855C20.0522 22.3856 19.3739 22.6665 18.6667 22.6665Z" fill="white"/>
</svg>
