<svg width="32" height="32" viewBox="0 0 32 32" fill="none" xmlns="http://www.w3.org/2000/svg">
<path fill-rule="evenodd" clip-rule="evenodd" d="M23.9987 19.448C23.4707 19.684 22.432 20 20.6654 20C19.1667 20 17.864 19.4893 16.4854 18.9493C14.936 18.3427 13.3334 17.7147 11.332 17.7147C9.9227 17.7147 8.8307 17.884 7.9987 18.112V16V7.22133C8.5267 6.98533 9.56803 6.66667 11.332 6.66667C12.8307 6.66667 14.1334 7.17733 15.512 7.71733C17.0614 8.324 18.664 8.952 20.6654 8.952C21.916 8.952 23.0334 8.81733 23.9987 8.552V19.448ZM25.6894 6.24C25.0734 5.79467 24.276 5.668 23.5574 5.90267C22.7894 6.152 21.7894 6.28533 20.6654 6.28533C19.1667 6.28533 17.864 5.77467 16.4854 5.23467C14.936 4.628 13.3334 4 11.332 4C7.4827 4 5.99203 5.26933 5.73203 5.52533C5.47603 5.77467 5.33203 6.11867 5.33203 6.476V16V20.1907V26.6667C5.33203 27.404 5.92803 28 6.66536 28C7.4027 28 7.9987 27.404 7.9987 26.6667V20.936C8.52536 20.7013 9.5627 20.3813 11.332 20.3813C12.8307 20.3813 14.1334 20.892 15.512 21.432C17.0614 22.0387 18.664 22.6667 20.6654 22.6667C23.0774 22.6667 24.5627 22.1627 25.3867 21.74C26.176 21.3307 26.6654 20.536 26.6654 19.6653V8.14133C26.6654 7.39467 26.3014 6.684 25.6894 6.24Z" fill="#03133D"/>
<mask id="mask0_2525_27108" style="mask-type:alpha" maskUnits="userSpaceOnUse" x="5" y="4" width="22" height="24">
<path fill-rule="evenodd" clip-rule="evenodd" d="M23.9987 19.448C23.4707 19.684 22.432 20 20.6654 20C19.1667 20 17.864 19.4893 16.4854 18.9493C14.936 18.3427 13.3334 17.7147 11.332 17.7147C9.9227 17.7147 8.8307 17.884 7.9987 18.112V16V7.22133C8.5267 6.98533 9.56803 6.66667 11.332 6.66667C12.8307 6.66667 14.1334 7.17733 15.512 7.71733C17.0614 8.324 18.664 8.952 20.6654 8.952C21.916 8.952 23.0334 8.81733 23.9987 8.552V19.448ZM25.6894 6.24C25.0734 5.79467 24.276 5.668 23.5574 5.90267C22.7894 6.152 21.7894 6.28533 20.6654 6.28533C19.1667 6.28533 17.864 5.77467 16.4854 5.23467C14.936 4.628 13.3334 4 11.332 4C7.4827 4 5.99203 5.26933 5.73203 5.52533C5.47603 5.77467 5.33203 6.11867 5.33203 6.476V16V20.1907V26.6667C5.33203 27.404 5.92803 28 6.66536 28C7.4027 28 7.9987 27.404 7.9987 26.6667V20.936C8.52536 20.7013 9.5627 20.3813 11.332 20.3813C12.8307 20.3813 14.1334 20.892 15.512 21.432C17.0614 22.0387 18.664 22.6667 20.6654 22.6667C23.0774 22.6667 24.5627 22.1627 25.3867 21.74C26.176 21.3307 26.6654 20.536 26.6654 19.6653V8.14133C26.6654 7.39467 26.3014 6.684 25.6894 6.24Z" fill="white"/>
</mask>
<g mask="url(#mask0_2525_27108)">
<rect width="32" height="32" fill="white"/>
</g>
</svg>
