<svg width="24" height="24" viewBox="0 0 24 24" fill="none" xmlns="http://www.w3.org/2000/svg">
<path fill-rule="evenodd" clip-rule="evenodd" d="M11.1109 23.0002C10.9969 23.0002 10.8819 22.9802 10.7689 22.9392C10.3369 22.7822 10.0669 22.3502 10.1169 21.8932L10.8849 14.8002H4.99987C4.63087 14.8002 4.29187 14.5972 4.11787 14.2712C3.94387 13.9452 3.96387 13.5512 4.16887 13.2442L12.0569 1.44418C12.3129 1.06118 12.7969 0.902182 13.2299 1.06118C13.6629 1.21818 13.9319 1.65018 13.8819 2.10718L13.1139 9.20018H18.9999C19.3689 9.20018 19.7079 9.40318 19.8819 9.72918C20.0549 10.0552 20.0359 10.4492 19.8309 10.7562L11.9419 22.5562C11.7529 22.8402 11.4369 23.0002 11.1109 23.0002Z" fill="#03133D"/>
<mask id="mask0_1919_32020" style="mask-type:alpha" maskUnits="userSpaceOnUse" x="4" y="1" width="16" height="22">
<path fill-rule="evenodd" clip-rule="evenodd" d="M11.1109 23.0002C10.9969 23.0002 10.8819 22.9802 10.7689 22.9392C10.3369 22.7822 10.0669 22.3502 10.1169 21.8932L10.8849 14.8002H4.99987C4.63087 14.8002 4.29187 14.5972 4.11787 14.2712C3.94387 13.9452 3.96387 13.5512 4.16887 13.2442L12.0569 1.44418C12.3129 1.06118 12.7969 0.902182 13.2299 1.06118C13.6629 1.21818 13.9319 1.65018 13.8819 2.10718L13.1139 9.20018H18.9999C19.3689 9.20018 19.7079 9.40318 19.8819 9.72918C20.0549 10.0552 20.0359 10.4492 19.8309 10.7562L11.9419 22.5562C11.7529 22.8402 11.4369 23.0002 11.1109 23.0002Z" fill="white"/>
</mask>
<g mask="url(#mask0_1919_32020)">
<rect width="24" height="24" fill="white"/>
</g>
</svg>
