<svg width="32" height="32" viewBox="0 0 32 32" fill="none" xmlns="http://www.w3.org/2000/svg">
<path fill-rule="evenodd" clip-rule="evenodd" d="M23.3272 18.6407C22.4392 21.4967 20.2259 23.474 17.2805 23.91C12.7859 24.5754 8.37253 21.1674 8.0232 16.634C7.66053 11.93 11.3712 8.00069 16.0019 8.00069C17.0725 8.00069 18.0939 8.21136 19.0272 8.59269C19.3512 8.72469 19.7179 8.61136 19.8832 8.30469L21.7965 4.77536C21.9779 4.43802 21.8472 4.00336 21.4979 3.84602C19.8219 3.08869 17.9632 2.66736 16.0059 2.66736C8.50987 2.66736 2.45787 8.84869 2.67253 16.3914C2.86853 23.2727 8.54853 29.03 15.4245 29.322C22.8192 29.634 28.9525 23.9274 29.3245 16.6967C29.3392 16.4327 29.3339 14.8954 29.3285 13.994C29.3272 13.626 29.0285 13.334 28.6619 13.334H16.6632C16.2952 13.334 15.9965 13.6314 15.9965 14.0007V17.974C15.9965 18.3407 16.2952 18.6407 16.6632 18.6407H23.3272Z" fill="#03133D"/>
<mask id="mask0_1437_17758" style="mask-type:alpha" maskUnits="userSpaceOnUse" x="2" y="2" width="28" height="28">
<path fill-rule="evenodd" clip-rule="evenodd" d="M23.3272 18.6407C22.4392 21.4967 20.2259 23.474 17.2805 23.91C12.7859 24.5754 8.37253 21.1674 8.0232 16.634C7.66053 11.93 11.3712 8.00069 16.0019 8.00069C17.0725 8.00069 18.0939 8.21136 19.0272 8.59269C19.3512 8.72469 19.7179 8.61136 19.8832 8.30469L21.7965 4.77536C21.9779 4.43802 21.8472 4.00336 21.4979 3.84602C19.8219 3.08869 17.9632 2.66736 16.0059 2.66736C8.50987 2.66736 2.45787 8.84869 2.67253 16.3914C2.86853 23.2727 8.54853 29.03 15.4245 29.322C22.8192 29.634 28.9525 23.9274 29.3245 16.6967C29.3392 16.4327 29.3339 14.8954 29.3285 13.994C29.3272 13.626 29.0285 13.334 28.6619 13.334H16.6632C16.2952 13.334 15.9965 13.6314 15.9965 14.0007V17.974C15.9965 18.3407 16.2952 18.6407 16.6632 18.6407H23.3272Z" fill="white"/>
</mask>
<g mask="url(#mask0_1437_17758)">
<rect width="32" height="32" fill="white"/>
</g>
</svg>
