<svg width="509" height="406" viewBox="0 0 509 406" fill="none" xmlns="http://www.w3.org/2000/svg">
<g clip-path="url(#clip0_2775_46244)">
<rect width="509" height="315.624" rx="11.1135" fill="white"/>
<g clip-path="url(#clip1_2775_46244)">
<rect x="26.6725" y="26.6726" width="455.655" height="104.467" rx="11.1135" fill="white"/>
<rect x="26.6725" y="26.6726" width="455.655" height="104.467" rx="11.1135" fill="url(#paint0_linear_2775_46244)"/>
<mask id="mask0_2775_46244" style="mask-type:alpha" maskUnits="userSpaceOnUse" x="26" y="26" width="457" height="106">
<rect x="26.6725" y="26.6726" width="455.655" height="104.467" rx="11.1135" fill="#7545FF"/>
</mask>
<g mask="url(#mask0_2775_46244)">
<path d="M54.3179 109.555V106.816C52.0181 106.556 50.1451 105.749 48.6989 104.398C47.2527 103.047 46.5058 101.233 46.4584 98.9568H51.2595C51.3069 99.9052 51.5914 100.735 52.113 101.446C52.6583 102.158 53.3933 102.644 54.3179 102.904V95.4005C54.1045 95.3294 53.8793 95.2582 53.6422 95.1871C53.4288 95.116 53.2036 95.0449 52.9665 94.9737C51.0461 94.3099 49.5761 93.4564 48.5566 92.4132C47.5609 91.37 47.063 89.983 47.063 88.2523C47.0393 86.2133 47.7031 84.5774 49.0545 83.3445C50.4059 82.088 52.1604 81.3648 54.3179 81.1752V78.2945H56.7006V81.2107C58.8344 81.4241 60.5533 82.1709 61.8573 83.4512C63.185 84.7078 63.8844 86.3319 63.9556 88.3234H59.0834C59.0597 87.6358 58.8344 87.0076 58.4077 86.4385C58.0046 85.8458 57.4356 85.4309 56.7006 85.1938V91.8086C56.8903 91.8797 57.08 91.9509 57.2697 92.022C57.4593 92.0694 57.649 92.1287 57.8387 92.1998C59.0715 92.6266 60.1977 93.1244 61.2172 93.6935C62.2367 94.2625 63.0546 95.0212 63.6711 95.9695C64.2875 96.8942 64.5957 98.0915 64.5957 99.5614C64.5957 100.794 64.2875 101.944 63.6711 103.011C63.0783 104.078 62.1893 104.967 61.0038 105.678C59.8421 106.366 58.4077 106.757 56.7006 106.852V109.555H54.3179ZM51.8285 87.9322C51.8285 88.6909 52.0537 89.3073 52.5042 89.7815C52.9546 90.232 53.5592 90.6232 54.3179 90.9551V85.0516C53.5829 85.1938 52.9784 85.5139 52.5042 86.0118C52.0537 86.5097 51.8285 87.1498 51.8285 87.9322ZM59.7591 99.8815C59.7591 98.9331 59.4746 98.1863 58.9056 97.641C58.3366 97.0957 57.6016 96.6334 56.7006 96.254V103.011C57.649 102.869 58.3958 102.525 58.9411 101.98C59.4864 101.434 59.7591 100.735 59.7591 99.8815ZM66.8959 106.461V103.153C68.4133 101.897 69.8832 100.652 71.3058 99.4192C72.752 98.1863 74.0323 96.9653 75.1466 95.7561C76.2846 94.547 77.1856 93.3734 77.8494 92.2354C78.537 91.0736 78.8808 89.9475 78.8808 88.8568C78.8808 87.8374 78.5963 86.9364 78.0272 86.154C77.4819 85.3716 76.5692 84.9804 75.2889 84.9804C73.9849 84.9804 73.001 85.4072 72.3371 86.2607C71.6733 87.1142 71.3413 88.1456 71.3413 89.3547H66.9315C66.9789 87.5292 67.382 86.0118 68.1406 84.8026C68.8993 83.5698 69.907 82.657 71.1635 82.0643C72.4201 81.4478 73.8308 81.1396 75.3956 81.1396C77.9324 81.1396 79.9002 81.839 81.2991 83.2378C82.7216 84.613 83.4329 86.403 83.4329 88.6079C83.4329 89.983 83.1128 91.3226 82.4727 92.6266C81.8562 93.9305 81.0383 95.1871 80.0188 96.3963C78.9993 97.6054 77.8968 98.7435 76.7114 99.8104C75.526 100.854 74.3761 101.826 73.2618 102.727H84.0375V106.461H66.8959ZM95.6769 106.887C93.8514 106.887 92.2747 106.567 90.947 105.927C89.643 105.287 88.6117 104.41 87.853 103.296C87.118 102.158 86.6913 100.877 86.5727 99.4547H91.0181C91.2315 100.474 91.7531 101.328 92.5829 102.015C93.4127 102.679 94.4441 103.011 95.6769 103.011C97.0046 103.011 98.0834 102.525 98.9132 101.553C99.7667 100.581 100.193 99.3717 100.193 97.9255C100.193 96.4318 99.7667 95.2464 98.9132 94.3692C98.0834 93.4919 97.0283 93.0533 95.7481 93.0533C94.6812 93.0533 93.7565 93.3141 92.9741 93.8357C92.1917 94.3573 91.6346 95.0093 91.3026 95.7917H86.9284L89.0622 81.5664H102.861V85.5495H92.4762L91.3382 91.3107C91.8598 90.7417 92.5711 90.2794 93.472 89.9237C94.3729 89.5444 95.3806 89.3547 96.4949 89.3547C98.2731 89.3547 99.7549 89.7578 100.94 90.5639C102.126 91.3463 103.027 92.3895 103.643 93.6935C104.26 94.9737 104.568 96.3726 104.568 97.8899C104.568 99.6207 104.188 101.162 103.43 102.513C102.695 103.865 101.652 104.931 100.3 105.714C98.9725 106.496 97.4314 106.887 95.6769 106.887ZM105.817 110.586L107.844 101.731H112.254L108.804 110.586H105.817ZM114.297 106.461V103.153C115.814 101.897 117.284 100.652 118.706 99.4192C120.153 98.1863 121.433 96.9653 122.547 95.7561C123.685 94.547 124.586 93.3734 125.25 92.2354C125.938 91.0736 126.281 89.9475 126.281 88.8568C126.281 87.8374 125.997 86.9364 125.428 86.154C124.883 85.3716 123.97 84.9804 122.69 84.9804C121.386 84.9804 120.402 85.4072 119.738 86.2607C119.074 87.1142 118.742 88.1456 118.742 89.3547H114.332C114.38 87.5292 114.783 86.0118 115.541 84.8026C116.3 83.5698 117.308 82.657 118.564 82.0643C119.821 81.4478 121.231 81.1396 122.796 81.1396C125.333 81.1396 127.301 81.839 128.7 83.2378C130.122 84.613 130.834 86.403 130.834 88.6079C130.834 89.983 130.513 91.3226 129.873 92.6266C129.257 93.9305 128.439 95.1871 127.419 96.3963C126.4 97.6054 125.297 98.7435 124.112 99.8104C122.927 100.854 121.777 101.826 120.662 102.727H131.438V106.461H114.297ZM136.854 106.461V86.7586L132.764 87.7188V84.2336L138.774 81.5664H141.584V106.461H136.854ZM154.27 106.887C152.445 106.887 150.868 106.567 149.54 105.927C148.236 105.287 147.205 104.41 146.446 103.296C145.711 102.158 145.285 100.877 145.166 99.4547H149.611C149.825 100.474 150.346 101.328 151.176 102.015C152.006 102.679 153.037 103.011 154.27 103.011C155.598 103.011 156.677 102.525 157.507 101.553C158.36 100.581 158.787 99.3717 158.787 97.9255C158.787 96.4318 158.36 95.2464 157.507 94.3692C156.677 93.4919 155.622 93.0533 154.341 93.0533C153.275 93.0533 152.35 93.3141 151.567 93.8357C150.785 94.3573 150.228 95.0093 149.896 95.7917H145.522L147.656 81.5664H161.454V85.5495H151.07L149.932 91.3107C150.453 90.7417 151.164 90.2794 152.065 89.9237C152.966 89.5444 153.974 89.3547 155.088 89.3547C156.866 89.3547 158.348 89.7578 159.534 90.5639C160.719 91.3463 161.62 92.3895 162.236 93.6935C162.853 94.9737 163.161 96.3726 163.161 97.8899C163.161 99.6207 162.782 101.162 162.023 102.513C161.288 103.865 160.245 104.931 158.894 105.714C157.566 106.496 156.025 106.887 154.27 106.887Z" fill="white"/>
<path d="M51.376 63.6675C50.1431 63.6675 49.0762 63.4008 48.1753 62.8673C47.2862 62.322 46.5986 61.5692 46.1126 60.609C45.6266 59.637 45.3835 58.5167 45.3835 57.2483C45.3835 55.968 45.6266 54.8478 46.1126 53.8876C46.5986 52.9155 47.2862 52.1568 48.1753 51.6115C49.0762 51.0662 50.1431 50.7936 51.376 50.7936C52.8341 50.7936 54.0254 51.1492 54.9501 51.8605C55.8747 52.5717 56.4615 53.5675 56.7105 54.8478H54.6122C54.4463 54.1247 54.0906 53.5497 53.5453 53.123C53 52.6962 52.271 52.4828 51.3582 52.4828C50.1135 52.4828 49.1295 52.9096 48.4064 53.7631C47.6833 54.6048 47.3217 55.7665 47.3217 57.2483C47.3217 58.7183 47.6833 59.8741 48.4064 60.7157C49.1295 61.5574 50.1135 61.9782 51.3582 61.9782C52.271 61.9782 53 61.7767 53.5453 61.3736C54.0906 60.9706 54.4463 60.4194 54.6122 59.72H56.7105C56.4615 60.9528 55.8747 61.919 54.9501 62.6184C54.0254 63.3178 52.8341 63.6675 51.376 63.6675ZM58.7112 63.4541V54.6344H60.4004L60.5605 56.3059C60.8687 55.725 61.2954 55.2686 61.8408 54.9367C62.3979 54.5929 63.0677 54.421 63.8501 54.421V56.3948H63.3344C62.8128 56.3948 62.3446 56.4837 61.9297 56.6615C61.5266 56.8275 61.2006 57.1179 60.9517 57.5328C60.7146 57.9359 60.596 58.4989 60.596 59.2221V63.4541H58.7112ZM69.3484 63.6675C68.483 63.6675 67.7124 63.4778 67.0367 63.0985C66.3729 62.7073 65.8513 62.1679 65.472 61.4803C65.0926 60.7928 64.9029 59.9926 64.9029 59.0798C64.9029 58.1552 65.0867 57.3431 65.4542 56.6437C65.8335 55.9443 66.3551 55.399 67.019 55.0078C67.6947 54.6166 68.4771 54.421 69.3661 54.421C70.2315 54.421 70.9843 54.6166 71.6244 55.0078C72.2646 55.3872 72.7624 55.8969 73.1181 56.537C73.4737 57.1772 73.6515 57.8825 73.6515 58.6531C73.6515 58.7716 73.6456 58.902 73.6337 59.0442C73.6337 59.1746 73.6278 59.3228 73.616 59.4888H66.7522C66.8115 60.3423 67.0901 60.9943 67.588 61.4448C68.0977 61.8834 68.6845 62.1027 69.3484 62.1027C69.8818 62.1027 70.3264 61.9842 70.682 61.7471C71.0495 61.4981 71.3221 61.1662 71.4999 60.7513H73.3848C73.1477 61.5811 72.6735 62.2746 71.9623 62.8317C71.2629 63.3889 70.3916 63.6675 69.3484 63.6675ZM69.3484 55.968C68.7201 55.968 68.1629 56.1577 67.6769 56.537C67.1909 56.9045 66.8945 57.4617 66.7878 58.2085H71.7667C71.7311 57.521 71.4881 56.9756 71.0376 56.5726C70.5872 56.1695 70.0241 55.968 69.3484 55.968ZM79.6259 63.6675C78.7724 63.6675 78.0196 63.466 77.3676 63.0629C76.7156 62.6599 76.2059 62.1086 75.8384 61.4092C75.4709 60.7098 75.2872 59.9156 75.2872 59.0265C75.2872 58.1374 75.4709 57.3491 75.8384 56.6615C76.2059 55.9621 76.7156 55.4168 77.3676 55.0256C78.0315 54.6225 78.7901 54.421 79.6437 54.421C80.3431 54.421 80.9536 54.5573 81.4752 54.83C82.0086 55.1026 82.4235 55.4879 82.7199 55.9858V50.6513H84.6047V63.4541H82.9155L82.7199 62.0849C82.4354 62.4998 82.0442 62.8673 81.5463 63.1874C81.0484 63.5074 80.4083 63.6675 79.6259 63.6675ZM79.9637 62.0316C80.7698 62.0316 81.4278 61.753 81.9375 61.1958C82.4591 60.6387 82.7199 59.9215 82.7199 59.0442C82.7199 58.1552 82.4591 57.438 81.9375 56.8927C81.4278 56.3355 80.7698 56.0569 79.9637 56.0569C79.1576 56.0569 78.4938 56.3355 77.9722 56.8927C77.4506 57.438 77.1898 58.1552 77.1898 59.0442C77.1898 59.6251 77.3083 60.1408 77.5454 60.5913C77.7825 61.0417 78.1085 61.3974 78.5234 61.6582C78.9502 61.9071 79.4303 62.0316 79.9637 62.0316ZM88.0481 52.9629C87.6925 52.9629 87.3961 52.8562 87.1591 52.6429C86.9338 52.4176 86.8212 52.139 86.8212 51.8071C86.8212 51.4752 86.9338 51.2025 87.1591 50.9892C87.3961 50.7639 87.6925 50.6513 88.0481 50.6513C88.4038 50.6513 88.6942 50.7639 88.9194 50.9892C89.1565 51.2025 89.2751 51.4752 89.2751 51.8071C89.2751 52.139 89.1565 52.4176 88.9194 52.6429C88.6942 52.8562 88.4038 52.9629 88.0481 52.9629ZM87.1057 63.4541V54.6344H88.9906V63.4541H87.1057ZM95.1773 63.4541C94.312 63.4541 93.6244 63.2466 93.1147 62.8317C92.6049 62.405 92.35 61.6522 92.35 60.5735V56.217H90.8386V54.6344H92.35L92.5812 52.3939H94.2349V54.6344H96.7243V56.217H94.2349V60.5735C94.2349 61.0595 94.3357 61.3974 94.5372 61.587C94.7506 61.7648 95.1121 61.8538 95.6219 61.8538H96.6354V63.4541H95.1773ZM103.219 63.4541V51.0069H107.913C109.206 51.0069 110.184 51.3092 110.847 51.9138C111.511 52.5184 111.843 53.2771 111.843 54.1899C111.843 54.9841 111.63 55.6183 111.203 56.0925C110.776 56.5548 110.261 56.869 109.656 57.0349C110.13 57.1298 110.551 57.3194 110.919 57.6039C111.298 57.8884 111.594 58.2441 111.808 58.6708C112.021 59.0976 112.128 59.5599 112.128 60.0578C112.128 60.6979 111.968 61.2788 111.648 61.8004C111.339 62.3101 110.883 62.7132 110.278 63.0096C109.674 63.3059 108.933 63.4541 108.056 63.4541H103.219ZM105.104 56.3414H107.682C108.405 56.3414 108.957 56.1755 109.336 55.8436C109.715 55.4998 109.905 55.0315 109.905 54.4388C109.905 53.8579 109.715 53.3956 109.336 53.0518C108.968 52.7081 108.405 52.5362 107.647 52.5362H105.104V56.3414ZM105.104 61.9071H107.807C108.565 61.9071 109.152 61.7293 109.567 61.3736C109.994 61.018 110.207 60.5201 110.207 59.88C110.207 59.2398 109.988 58.736 109.549 58.3685C109.111 57.9892 108.518 57.7995 107.771 57.7995H105.104V61.9071ZM117.11 63.6675C116.363 63.6675 115.747 63.543 115.261 63.2941C114.775 63.0451 114.413 62.7191 114.176 62.3161C113.939 61.9012 113.82 61.4507 113.82 60.9647C113.82 60.1111 114.152 59.4354 114.816 58.9376C115.48 58.4397 116.428 58.1907 117.661 58.1907H119.973V58.0307C119.973 57.3431 119.783 56.8275 119.404 56.4837C119.036 56.1399 118.556 55.968 117.963 55.968C117.442 55.968 116.985 56.0984 116.594 56.3592C116.215 56.6082 115.984 56.9816 115.901 57.4795H114.016C114.075 56.8393 114.289 56.294 114.656 55.8436C115.035 55.3812 115.51 55.0315 116.079 54.7944C116.659 54.5455 117.294 54.421 117.981 54.421C119.214 54.421 120.168 54.747 120.844 55.399C121.52 56.0391 121.858 56.9164 121.858 58.0307V63.4541H120.222L120.062 61.9427C119.813 62.4287 119.451 62.8377 118.977 63.1696C118.503 63.5015 117.88 63.6675 117.11 63.6675ZM117.483 62.1383C117.993 62.1383 118.42 62.0197 118.764 61.7826C119.119 61.5337 119.392 61.2077 119.582 60.8046C119.783 60.4016 119.908 59.957 119.955 59.471H117.857C117.11 59.471 116.576 59.6014 116.256 59.8622C115.948 60.123 115.794 60.449 115.794 60.8402C115.794 61.2432 115.942 61.5633 116.239 61.8004C116.547 62.0256 116.962 62.1383 117.483 62.1383ZM124.055 63.4541V50.6513H125.94V63.4541H124.055ZM131.314 63.6675C130.568 63.6675 129.951 63.543 129.465 63.2941C128.979 63.0451 128.618 62.7191 128.38 62.3161C128.143 61.9012 128.025 61.4507 128.025 60.9647C128.025 60.1111 128.357 59.4354 129.021 58.9376C129.684 58.4397 130.633 58.1907 131.866 58.1907H134.177V58.0307C134.177 57.3431 133.988 56.8275 133.608 56.4837C133.241 56.1399 132.761 55.968 132.168 55.968C131.646 55.968 131.19 56.0984 130.799 56.3592C130.419 56.6082 130.188 56.9816 130.105 57.4795H128.22C128.28 56.8393 128.493 56.294 128.861 55.8436C129.24 55.3812 129.714 55.0315 130.283 54.7944C130.864 54.5455 131.498 54.421 132.186 54.421C133.419 54.421 134.373 54.747 135.049 55.399C135.724 56.0391 136.062 56.9164 136.062 58.0307V63.4541H134.426L134.266 61.9427C134.017 62.4287 133.656 62.8377 133.181 63.1696C132.707 63.5015 132.085 63.6675 131.314 63.6675ZM131.688 62.1383C132.198 62.1383 132.624 62.0197 132.968 61.7826C133.324 61.5337 133.596 61.2077 133.786 60.8046C133.988 60.4016 134.112 59.957 134.159 59.471H132.061C131.314 59.471 130.781 59.6014 130.461 59.8622C130.153 60.123 129.999 60.449 129.999 60.8402C129.999 61.2432 130.147 61.5633 130.443 61.8004C130.751 62.0256 131.166 62.1383 131.688 62.1383ZM138.26 63.4541V54.6344H139.931L140.074 56.1814C140.346 55.6361 140.743 55.2093 141.265 54.9011C141.798 54.5811 142.409 54.421 143.096 54.421C144.163 54.421 144.999 54.7529 145.604 55.4168C146.22 56.0806 146.528 57.0705 146.528 58.3863V63.4541H144.661V58.5819C144.661 56.8749 143.962 56.0214 142.563 56.0214C141.864 56.0214 141.283 56.2703 140.82 56.7682C140.37 57.2661 140.145 57.9773 140.145 58.902V63.4541H138.26ZM152.927 63.6675C152.062 63.6675 151.285 63.4719 150.597 63.0807C149.922 62.6895 149.388 62.1501 148.997 61.4626C148.618 60.7631 148.428 59.957 148.428 59.0442C148.428 58.1315 148.618 57.3313 148.997 56.6437C149.388 55.9443 149.922 55.399 150.597 55.0078C151.285 54.6166 152.062 54.421 152.927 54.421C154.017 54.421 154.93 54.7055 155.665 55.2745C156.412 55.8436 156.892 56.6141 157.106 57.5862H155.132C155.013 57.1001 154.752 56.7208 154.349 56.4481C153.946 56.1755 153.472 56.0391 152.927 56.0391C152.465 56.0391 152.038 56.1577 151.647 56.3948C151.255 56.62 150.941 56.9579 150.704 57.4083C150.467 57.847 150.349 58.3923 150.349 59.0442C150.349 59.6962 150.467 60.2475 150.704 60.6979C150.941 61.1366 151.255 61.4744 151.647 61.7115C152.038 61.9486 152.465 62.0671 152.927 62.0671C153.472 62.0671 153.946 61.9308 154.349 61.6582C154.752 61.3855 155.013 61.0002 155.132 60.5023H157.106C156.904 61.4507 156.43 62.2153 155.683 62.7962C154.936 63.377 154.017 63.6675 152.927 63.6675ZM163.275 63.6675C162.41 63.6675 161.639 63.4778 160.964 63.0985C160.3 62.7073 159.778 62.1679 159.399 61.4803C159.019 60.7928 158.83 59.9926 158.83 59.0798C158.83 58.1552 159.013 57.3431 159.381 56.6437C159.76 55.9443 160.282 55.399 160.946 55.0078C161.621 54.6166 162.404 54.421 163.293 54.421C164.158 54.421 164.911 54.6166 165.551 55.0078C166.191 55.3872 166.689 55.8969 167.045 56.537C167.4 57.1772 167.578 57.8825 167.578 58.6531C167.578 58.7716 167.572 58.902 167.561 59.0442C167.561 59.1746 167.555 59.3228 167.543 59.4888H160.679C160.738 60.3423 161.017 60.9943 161.515 61.4448C162.024 61.8834 162.611 62.1027 163.275 62.1027C163.809 62.1027 164.253 61.9842 164.609 61.7471C164.976 61.4981 165.249 61.1662 165.427 60.7513H167.312C167.074 61.5811 166.6 62.2746 165.889 62.8317C165.19 63.3889 164.318 63.6675 163.275 63.6675ZM163.275 55.968C162.647 55.968 162.09 56.1577 161.604 56.537C161.118 56.9045 160.821 57.4617 160.715 58.2085H165.693C165.658 57.521 165.415 56.9756 164.964 56.5726C164.514 56.1695 163.951 55.968 163.275 55.968Z" fill="#E9EDF7"/>
<path opacity="0.1" d="M268.038 204.53L411.371 -45.177H489.929L496.544 204.53H268.038Z" fill="url(#paint1_linear_2775_46244)"/>
</g>
<g clip-path="url(#clip2_2775_46244)">
<path d="M444.541 55.5676C443.319 55.5676 442.319 56.5678 442.319 57.7903C442.319 59.0128 443.319 60.013 444.541 60.013C445.764 60.013 446.764 59.0128 446.764 57.7903C446.764 56.5678 445.764 55.5676 444.541 55.5676ZM457.878 55.5676C456.655 55.5676 455.655 56.5678 455.655 57.7903C455.655 59.0128 456.655 60.013 457.878 60.013C459.1 60.013 460.1 59.0128 460.1 57.7903C460.1 56.5678 459.1 55.5676 457.878 55.5676ZM451.21 55.5676C449.987 55.5676 448.987 56.5678 448.987 57.7903C448.987 59.0128 449.987 60.013 451.21 60.013C452.432 60.013 453.432 59.0128 453.432 57.7903C453.432 56.5678 452.432 55.5676 451.21 55.5676Z" fill="white"/>
</g>
<path d="M393.419 101.813C394.266 106.043 397.639 113.914 405.475 113.327C413.311 112.74 414.249 93.3538 427.966 93.3538C441.684 93.3538 441.684 115.71 464.546 96.3749" stroke="white" stroke-width="2.35573" stroke-linecap="round" stroke-linejoin="round"/>
</g>
<path d="M34.5928 245.905C21.2867 256.252 3.54511 247.342 -3.6624 241.593L-46.9075 407.276L522.763 425.754C526.367 350.406 528.917 196.877 510.289 185.544C487.003 171.378 475.36 197.863 471.202 205.87C467.044 213.877 452.906 220.036 441.263 217.572C429.62 215.109 404.671 245.905 387.206 253.296C369.742 260.687 345.625 220.036 334.813 213.261C324.002 206.486 314.854 221.268 310.696 220.036C306.538 218.804 289.073 180.001 276.599 180.617C264.124 181.233 253.313 217.572 244.165 213.261C235.017 208.95 225.037 241.593 194.267 263.151C163.496 284.708 151.022 181.233 134.389 176.306C117.756 171.378 112.767 192.936 96.1339 213.261C79.5012 233.586 72.0165 218.188 67.0267 213.261C62.0368 208.334 51.2256 232.97 34.5928 245.905Z" fill="url(#paint2_linear_2775_46244)"/>
<path d="M34.5928 245.905C21.2867 256.252 3.54511 247.342 -3.6624 241.593L-46.9075 407.276L522.763 425.754C526.367 350.406 528.917 196.877 510.289 185.544C487.003 171.378 475.36 197.863 471.202 205.87C467.044 213.877 452.906 220.036 441.263 217.572C429.62 215.109 404.671 245.905 387.206 253.296C369.742 260.687 345.625 220.036 334.813 213.261C324.002 206.486 314.854 221.268 310.696 220.036C306.538 218.804 289.073 180.001 276.599 180.617C264.124 181.233 253.313 217.572 244.165 213.261C235.017 208.95 225.037 241.593 194.267 263.151C163.496 284.708 151.022 181.233 134.389 176.306C117.756 171.378 112.767 192.936 96.1339 213.261C79.5012 233.586 72.0165 218.188 67.0267 213.261C62.0368 208.334 51.2256 232.97 34.5928 245.905Z" stroke="#006EEA" stroke-width="4.44542" stroke-linecap="round" stroke-linejoin="round"/>
</g>
<rect x="29" y="270" width="192" height="60" rx="10" fill="white"/>
<rect x="47" y="294" width="156" height="12" rx="6" fill="#0097FE"/>
<rect x="85" y="346" width="192" height="60" rx="10" fill="white"/>
<rect x="103" y="370" width="156" height="12" rx="6" fill="#F7EDFE"/>
<path fill-rule="evenodd" clip-rule="evenodd" d="M416 389.345C413.373 389.345 410.746 388.694 408.413 387.377L406.065 386.052C369.167 365.297 346.25 326.113 346.25 283.783V282.659C346.25 277.087 349.273 271.91 354.14 269.158L408.405 238.639C413.094 236.004 418.914 235.996 423.587 238.631L477.845 269.151C482.728 271.91 485.75 277.087 485.75 282.659V283.783C485.75 326.113 462.833 365.297 425.936 386.052L423.595 387.369C421.255 388.687 418.627 389.345 416 389.345Z" fill="#03133D"/>
<mask id="mask1_2775_46244" style="mask-type:alpha" maskUnits="userSpaceOnUse" x="346" y="236" width="140" height="154">
<path fill-rule="evenodd" clip-rule="evenodd" d="M416 389.345C413.373 389.345 410.746 388.694 408.413 387.377L406.065 386.052C369.167 365.297 346.25 326.113 346.25 283.783V282.659C346.25 277.087 349.273 271.91 354.14 269.158L408.405 238.639C413.094 236.004 418.914 235.996 423.587 238.631L477.845 269.151C482.728 271.91 485.75 277.087 485.75 282.659V283.783C485.75 326.113 462.833 365.297 425.936 386.052L423.595 387.369C421.255 388.687 418.627 389.345 416 389.345Z" fill="white"/>
</mask>
<g mask="url(#mask1_2775_46244)">
<rect x="323" y="220" width="186" height="186" rx="10" fill="url(#paint3_linear_2775_46244)"/>
</g>
<path fill-rule="evenodd" clip-rule="evenodd" d="M429.316 305.777L415.155 324.377C414.572 325.142 413.67 325.595 412.709 325.601H412.688C411.736 325.601 410.837 325.161 410.248 324.411L402.709 314.779C401.655 313.434 401.89 311.484 403.239 310.43C404.584 309.373 406.537 309.608 407.591 310.96L412.653 317.427L424.384 302.023C425.419 300.662 427.363 300.395 428.73 301.434C430.091 302.472 430.354 304.416 429.316 305.777ZM416.002 282.201C398.88 282.201 385.002 296.08 385.002 313.201C385.002 330.32 398.88 344.201 416.002 344.201C433.123 344.201 447.002 330.32 447.002 313.201C447.002 296.08 433.123 282.201 416.002 282.201Z" fill="#231F20"/>
<mask id="mask2_2775_46244" style="mask-type:alpha" maskUnits="userSpaceOnUse" x="385" y="282" width="63" height="63">
<path fill-rule="evenodd" clip-rule="evenodd" d="M429.316 305.777L415.155 324.377C414.572 325.142 413.67 325.595 412.709 325.601H412.688C411.736 325.601 410.837 325.161 410.248 324.411L402.709 314.779C401.655 313.434 401.89 311.484 403.239 310.43C404.584 309.373 406.537 309.608 407.591 310.96L412.653 317.427L424.384 302.023C425.419 300.662 427.363 300.395 428.73 301.434C430.091 302.472 430.354 304.416 429.316 305.777ZM416.002 282.201C398.88 282.201 385.002 296.08 385.002 313.201C385.002 330.32 398.88 344.201 416.002 344.201C433.123 344.201 447.002 330.32 447.002 313.201C447.002 296.08 433.123 282.201 416.002 282.201Z" fill="white"/>
</mask>
<g mask="url(#mask2_2775_46244)">
<rect x="378.8" y="276" width="74.4" height="74.4" fill="white"/>
</g>
<defs>
<linearGradient id="paint0_linear_2775_46244" x1="26.6725" y1="26.6726" x2="72.1824" y2="225.173" gradientUnits="userSpaceOnUse">
<stop stop-color="#AC60E5"/>
<stop offset="1" stop-color="#0C87F0"/>
</linearGradient>
<linearGradient id="paint1_linear_2775_46244" x1="417.573" y1="-81.4312" x2="386.341" y2="185.263" gradientUnits="userSpaceOnUse">
<stop stop-color="white"/>
<stop offset="0.0001" stop-color="white"/>
<stop offset="1" stop-color="white" stop-opacity="0"/>
</linearGradient>
<linearGradient id="paint2_linear_2775_46244" x1="267.295" y1="141.756" x2="267.295" y2="420.92" gradientUnits="userSpaceOnUse">
<stop stop-color="#F3F0FF"/>
<stop offset="1" stop-color="#F1EDFF" stop-opacity="0"/>
</linearGradient>
<linearGradient id="paint3_linear_2775_46244" x1="323" y1="220" x2="509" y2="406" gradientUnits="userSpaceOnUse">
<stop stop-color="#AC60E5"/>
<stop offset="1" stop-color="#0C87F0"/>
</linearGradient>
<clipPath id="clip0_2775_46244">
<rect width="509" height="315.624" rx="11.1135" fill="white"/>
</clipPath>
<clipPath id="clip1_2775_46244">
<rect x="26.6725" y="26.6726" width="455.655" height="104.467" rx="11.1135" fill="white"/>
</clipPath>
<clipPath id="clip2_2775_46244">
<rect width="26.6725" height="26.6725" fill="white" transform="translate(437.873 44.4541)"/>
</clipPath>
</defs>
</svg>
