<svg width="509" height="406" viewBox="0 0 509 406" fill="none" xmlns="http://www.w3.org/2000/svg">
<g clip-path="url(#clip0_2775_46291)">
<g filter="url(#filter0_d_2775_46291)">
<rect y="114.173" width="509.699" height="292.004" rx="10.4661" fill="white"/>
<path opacity="0.2" d="M0 149.758H509.699V395.711C509.699 401.491 505.013 406.177 499.233 406.177H10.4661C4.68582 406.177 0 401.491 0 395.711V149.758Z" fill="#EBF7FF"/>
<rect x="25.1186" y="174.876" width="214.555" height="206.182" rx="10.4661" fill="white"/>
<rect x="47.9999" y="339" width="70" height="8" rx="4" fill="#EDF1FC"/>
<rect x="47.9999" y="358" width="150" height="8" rx="4" fill="#EDF1FC"/>
<path d="M50.2376 318.262C70.0613 318.262 67.719 279.673 87.5427 279.673C107.366 279.673 105.02 289.963 124.844 289.963C144.668 289.963 141.614 306.869 161.438 306.869C181.262 306.869 184.619 315.553 204.443 315.553" stroke="#FFAE00" stroke-width="2.16585" stroke-linecap="round"/>
<path d="M50.2372 318.262C69.6063 318.262 72.0806 291.433 91.4498 291.433C110.819 291.433 107.608 270.118 126.977 270.118C146.346 270.118 145.976 300.254 165.345 300.254C184.714 300.254 185.766 315.443 205.135 315.443" stroke="#0097FE" stroke-width="2.16585" stroke-linecap="round"/>
<path d="M61.3229 246.77C59.5591 246.77 58.0743 246.446 56.8686 245.798C55.6629 245.151 54.6916 244.28 53.9548 243.186C53.218 242.092 52.6821 240.875 52.3472 239.535C52.0346 238.196 51.8783 236.823 51.8783 235.416C51.8783 232.804 52.2467 230.537 52.9835 228.617C53.7204 226.675 54.7809 225.179 56.1652 224.129C57.5496 223.058 59.2241 222.522 61.189 222.522C62.7966 222.522 64.1586 222.845 65.2749 223.493C66.4136 224.118 67.2956 224.944 67.9208 225.971C68.5459 226.998 68.9144 228.104 69.026 229.287H65.0405C64.8395 228.26 64.4042 227.467 63.7343 226.909C63.0645 226.351 62.2049 226.072 61.1555 226.072C59.6595 226.072 58.4538 226.764 57.5384 228.148C56.623 229.51 56.1318 231.598 56.0648 234.411C56.6006 233.496 57.4044 232.737 58.4762 232.134C59.5479 231.531 60.7424 231.23 62.0598 231.23C63.3548 231.23 64.5716 231.542 65.7103 232.167C66.849 232.792 67.7645 233.674 68.4566 234.813C69.1711 235.952 69.5284 237.291 69.5284 238.832C69.5284 240.239 69.1823 241.545 68.4901 242.751C67.8203 243.956 66.8602 244.928 65.6099 245.664C64.3818 246.401 62.9529 246.77 61.3229 246.77ZM61.0885 243.086C62.3388 243.086 63.3659 242.706 64.1697 241.947C64.9958 241.165 65.4089 240.183 65.4089 239C65.4089 237.749 64.9958 236.744 64.1697 235.985C63.3436 235.226 62.2942 234.847 61.0215 234.847C60.1954 234.847 59.4474 235.036 58.7776 235.416C58.1301 235.773 57.6165 236.264 57.237 236.89C56.8574 237.492 56.6676 238.173 56.6676 238.933C56.6676 240.138 57.0807 241.132 57.9068 241.913C58.7553 242.695 59.8158 243.086 61.0885 243.086ZM81.0089 246.77C79.4013 246.77 77.95 246.49 76.655 245.932C75.36 245.352 74.3217 244.537 73.5403 243.487C72.7811 242.438 72.4016 241.221 72.4016 239.837C72.4016 238.408 72.77 237.158 73.5068 236.086C74.2659 235.014 75.2595 234.244 76.4875 233.775C75.4158 233.306 74.5674 232.636 73.9422 231.765C73.317 230.872 73.0044 229.879 73.0044 228.785C73.0044 227.668 73.3058 226.641 73.9087 225.703C74.5115 224.743 75.4046 223.973 76.588 223.392C77.7937 222.812 79.2673 222.522 81.0089 222.522C82.7504 222.522 84.2129 222.812 85.3963 223.392C86.5796 223.973 87.4728 224.743 88.0756 225.703C88.6784 226.641 88.9799 227.668 88.9799 228.785C88.9799 229.856 88.6561 230.85 88.0086 231.765C87.3834 232.658 86.5462 233.328 85.4968 233.775C86.7471 234.244 87.7407 235.014 88.4775 236.086C89.2143 237.158 89.5827 238.408 89.5827 239.837C89.5827 241.221 89.2031 242.438 88.444 243.487C87.6849 244.537 86.6466 245.352 85.3293 245.932C84.0343 246.49 82.5942 246.77 81.0089 246.77ZM81.0089 232.502C82.1699 232.502 83.0854 232.201 83.7552 231.598C84.425 230.995 84.7599 230.225 84.7599 229.287C84.7599 228.26 84.425 227.456 83.7552 226.876C83.1077 226.295 82.1923 226.005 81.0089 226.005C79.8032 226.005 78.8766 226.295 78.2291 226.876C77.5816 227.456 77.2578 228.26 77.2578 229.287C77.2578 230.247 77.5816 231.029 78.2291 231.631C78.8989 232.212 79.8255 232.502 81.0089 232.502ZM81.0089 243.186C82.4379 243.186 83.5208 242.84 84.2576 242.148C84.9944 241.433 85.3628 240.54 85.3628 239.468C85.3628 238.285 84.9721 237.358 84.1906 236.689C83.4314 236.019 82.3709 235.684 81.0089 235.684C79.6469 235.684 78.564 236.019 77.7602 236.689C76.9787 237.358 76.588 238.285 76.588 239.468C76.588 240.54 76.9564 241.433 77.6932 242.148C78.4524 242.84 79.5576 243.186 81.0089 243.186ZM97.6175 234.445C96.5458 234.445 95.5746 234.21 94.7038 233.741C93.833 233.25 93.1408 232.558 92.6273 231.665C92.1138 230.772 91.857 229.711 91.857 228.483C91.857 227.255 92.1138 226.195 92.6273 225.302C93.1408 224.408 93.833 223.727 94.7038 223.259C95.5746 222.767 96.557 222.522 97.651 222.522C98.7228 222.522 99.6829 222.767 100.531 223.259C101.402 223.727 102.094 224.408 102.608 225.302C103.121 226.195 103.378 227.255 103.378 228.483C103.378 229.711 103.121 230.772 102.608 231.665C102.094 232.558 101.402 233.25 100.531 233.741C99.6605 234.21 98.6893 234.445 97.6175 234.445ZM96.3449 246.368L109.574 222.924H113.76L100.531 246.368H96.3449ZM97.6175 231.464C98.265 231.464 98.8232 231.218 99.2921 230.727C99.761 230.214 99.9954 229.466 99.9954 228.483C99.9954 227.501 99.761 226.753 99.2921 226.239C98.8456 225.726 98.2874 225.469 97.6175 225.469C96.9477 225.469 96.3784 225.726 95.9095 226.239C95.4629 226.753 95.2396 227.501 95.2396 228.483C95.2396 229.466 95.4629 230.214 95.9095 230.727C96.3784 231.218 96.9477 231.464 97.6175 231.464ZM112.622 246.77C111.55 246.77 110.579 246.535 109.708 246.066C108.837 245.575 108.145 244.883 107.632 243.99C107.118 243.097 106.861 242.036 106.861 240.808C106.861 239.58 107.118 238.531 107.632 237.66C108.145 236.767 108.837 236.086 109.708 235.617C110.579 235.126 111.561 234.88 112.655 234.88C113.727 234.88 114.687 235.126 115.536 235.617C116.406 236.086 117.098 236.767 117.612 237.66C118.126 238.531 118.382 239.58 118.382 240.808C118.382 242.036 118.126 243.097 117.612 243.99C117.098 244.883 116.406 245.575 115.536 246.066C114.687 246.535 113.716 246.77 112.622 246.77ZM112.622 243.789C113.292 243.789 113.85 243.543 114.296 243.052C114.765 242.538 115 241.791 115 240.808C115 239.826 114.765 239.078 114.296 238.564C113.85 238.051 113.292 237.794 112.622 237.794C111.952 237.794 111.383 238.051 110.914 238.564C110.467 239.078 110.244 239.826 110.244 240.808C110.244 241.791 110.467 242.538 110.914 243.052C111.383 243.543 111.952 243.789 112.622 243.789Z" fill="#03133D"/>
<path d="M53.9674 207.586C53.3227 207.586 52.7617 207.469 52.2844 207.235C51.8072 207 51.4388 206.674 51.1792 206.255C50.9196 205.836 50.7899 205.351 50.7899 204.798H51.8951C51.8951 205.141 51.9746 205.46 52.1337 205.753C52.2928 206.037 52.523 206.268 52.8245 206.443C53.1343 206.611 53.5152 206.695 53.9674 206.695C54.5618 206.695 55.0223 206.552 55.3489 206.268C55.6754 205.983 55.8387 205.627 55.8387 205.2C55.8387 204.848 55.7633 204.568 55.6126 204.359C55.4619 204.141 55.2568 203.965 54.9972 203.831C54.746 203.697 54.453 203.58 54.1181 203.479C53.7915 203.379 53.4482 203.266 53.0882 203.14C52.41 202.906 51.9076 202.617 51.5811 202.274C51.2545 201.922 51.0913 201.466 51.0913 200.905C51.0829 200.436 51.1918 200.021 51.4178 199.661C51.6439 199.293 51.9621 199.008 52.3723 198.807C52.791 198.598 53.285 198.493 53.8543 198.493C54.4153 198.493 54.9009 198.598 55.3112 198.807C55.7299 199.017 56.0522 199.305 56.2783 199.674C56.5127 200.042 56.6341 200.461 56.6425 200.93H55.5373C55.5373 200.687 55.4745 200.448 55.3489 200.214C55.2233 199.971 55.0307 199.774 54.7712 199.624C54.52 199.473 54.2018 199.398 53.8167 199.398C53.3394 199.389 52.9459 199.511 52.6361 199.762C52.3347 200.013 52.1839 200.36 52.1839 200.804C52.1839 201.181 52.2886 201.47 52.4979 201.671C52.7156 201.872 53.017 202.039 53.4022 202.173C53.7873 202.299 54.2311 202.445 54.7335 202.613C55.1521 202.763 55.5289 202.939 55.8638 203.14C56.1987 203.341 56.4583 203.601 56.6425 203.919C56.8351 204.237 56.9314 204.643 56.9314 205.137C56.9314 205.556 56.8225 205.954 56.6048 206.33C56.3871 206.699 56.0564 207 55.6126 207.235C55.1772 207.469 54.6288 207.586 53.9674 207.586ZM60.437 207.586C59.9179 207.586 59.4867 207.498 59.1434 207.323C58.8001 207.147 58.5447 206.912 58.3773 206.619C58.2098 206.326 58.1261 206.008 58.1261 205.665C58.1261 205.028 58.3689 204.539 58.8545 204.195C59.3401 203.852 60.0016 203.68 60.8389 203.68H62.5218V203.605C62.5218 203.061 62.3795 202.65 62.0948 202.374C61.8101 202.089 61.4292 201.947 60.9519 201.947C60.5416 201.947 60.1858 202.052 59.8844 202.261C59.5913 202.462 59.4071 202.759 59.3318 203.153H58.2517C58.2935 202.701 58.4442 202.32 58.7038 202.01C58.9717 201.7 59.3025 201.466 59.696 201.307C60.0895 201.139 60.5082 201.055 60.9519 201.055C61.8227 201.055 62.4758 201.29 62.9112 201.759C63.3549 202.219 63.5768 202.835 63.5768 203.605V207.436H62.6349L62.5721 206.318C62.3962 206.669 62.1367 206.971 61.7934 207.222C61.4585 207.465 61.0063 207.586 60.437 207.586ZM60.6003 206.695C61.0022 206.695 61.3454 206.59 61.6301 206.381C61.9232 206.171 62.1451 205.899 62.2958 205.564C62.4465 205.229 62.5218 204.878 62.5218 204.509V204.497H60.9268C60.3072 204.497 59.8676 204.606 59.6081 204.823C59.3569 205.033 59.2313 205.296 59.2313 205.614C59.2313 205.941 59.3485 206.205 59.5829 206.406C59.8258 206.598 60.1649 206.695 60.6003 206.695ZM65.1595 207.436V198.393H66.2145V207.436H65.1595ZM70.7444 207.586C70.1499 207.586 69.6224 207.452 69.1619 207.184C68.7014 206.908 68.3372 206.527 68.0692 206.041C67.8097 205.556 67.6799 204.982 67.6799 204.321C67.6799 203.668 67.8097 203.098 68.0692 202.613C68.3288 202.119 68.6888 201.738 69.1493 201.47C69.6182 201.194 70.1583 201.055 70.7695 201.055C71.3723 201.055 71.8914 201.194 72.3268 201.47C72.7706 201.738 73.1097 202.094 73.3441 202.537C73.5786 202.981 73.6958 203.458 73.6958 203.969C73.6958 204.061 73.6916 204.153 73.6832 204.245C73.6832 204.338 73.6832 204.442 73.6832 204.559H68.7223C68.7474 205.037 68.8563 205.434 69.0489 205.753C69.2498 206.062 69.4968 206.297 69.7899 206.456C70.0913 206.615 70.4094 206.695 70.7444 206.695C71.1797 206.695 71.544 206.594 71.837 206.393C72.1301 206.192 72.3436 205.92 72.4775 205.577H73.52C73.3525 206.154 73.0302 206.636 72.5529 207.021C72.084 207.398 71.4812 207.586 70.7444 207.586ZM70.7444 201.947C70.242 201.947 69.794 202.102 69.4005 202.412C69.0154 202.713 68.7935 203.157 68.7349 203.743H72.6534C72.6283 203.182 72.4357 202.743 72.0756 202.424C71.7156 202.106 71.2719 201.947 70.7444 201.947ZM77.4804 207.586C76.7352 207.586 76.1156 207.398 75.6216 207.021C75.1276 206.644 74.8387 206.134 74.755 205.489H75.8351C75.9021 205.815 76.0737 206.1 76.35 206.343C76.6347 206.577 77.0157 206.695 77.4929 206.695C77.9367 206.695 78.2632 206.602 78.4726 206.418C78.6819 206.226 78.7865 206 78.7865 205.74C78.7865 205.363 78.6484 205.112 78.3721 204.986C78.1042 204.861 77.7232 204.748 77.2292 204.647C76.8943 204.58 76.5594 204.484 76.2244 204.359C75.8895 204.233 75.609 204.057 75.383 203.831C75.1569 203.597 75.0439 203.291 75.0439 202.914C75.0439 202.37 75.2448 201.926 75.6467 201.583C76.057 201.231 76.6096 201.055 77.3045 201.055C77.966 201.055 78.5061 201.223 78.9247 201.558C79.3517 201.884 79.5987 202.353 79.6657 202.964H78.6233C78.5814 202.646 78.4433 202.399 78.2088 202.223C77.9827 202.039 77.6771 201.947 77.292 201.947C76.9152 201.947 76.6222 202.027 76.4128 202.186C76.2119 202.345 76.1114 202.554 76.1114 202.814C76.1114 203.065 76.2412 203.262 76.5007 203.404C76.7687 203.546 77.1287 203.668 77.5808 203.768C77.966 203.852 78.3302 203.957 78.6735 204.082C79.0252 204.199 79.3098 204.379 79.5275 204.622C79.7536 204.857 79.8666 205.2 79.8666 205.652C79.875 206.213 79.6615 206.678 79.2261 207.046C78.7991 207.406 78.2172 207.586 77.4804 207.586ZM87.1592 207.436C86.5898 207.436 86.1419 207.297 85.8153 207.021C85.4888 206.745 85.3255 206.247 85.3255 205.527V202.098H84.2454V201.206H85.3255L85.4637 199.712H86.3805V201.206H88.2142V202.098H86.3805V205.527C86.3805 205.92 86.4601 206.188 86.6191 206.33C86.7782 206.464 87.0587 206.531 87.4606 206.531H88.1137V207.436H87.1592ZM89.5545 207.436V201.206H90.509L90.5969 202.399C90.7895 201.989 91.0825 201.662 91.4761 201.42C91.8696 201.177 92.3552 201.055 92.933 201.055V202.161H92.6441C92.2757 202.161 91.9366 202.228 91.6268 202.362C91.317 202.487 91.07 202.705 90.8858 203.015C90.7016 203.324 90.6095 203.751 90.6095 204.296V207.436H89.5545ZM96.6848 207.586C96.0903 207.586 95.5628 207.452 95.1023 207.184C94.6418 206.908 94.2776 206.527 94.0096 206.041C93.7501 205.556 93.6203 204.982 93.6203 204.321C93.6203 203.668 93.7501 203.098 94.0096 202.613C94.2692 202.119 94.6292 201.738 95.0897 201.47C95.5586 201.194 96.0987 201.055 96.7099 201.055C97.3127 201.055 97.8318 201.194 98.2672 201.47C98.711 201.738 99.0501 202.094 99.2845 202.537C99.519 202.981 99.6362 203.458 99.6362 203.969C99.6362 204.061 99.632 204.153 99.6236 204.245C99.6236 204.338 99.6236 204.442 99.6236 204.559H94.6627C94.6878 205.037 94.7967 205.434 94.9892 205.753C95.1902 206.062 95.4372 206.297 95.7302 206.456C96.0317 206.615 96.3498 206.695 96.6848 206.695C97.1201 206.695 97.4844 206.594 97.7774 206.393C98.0705 206.192 98.284 205.92 98.4179 205.577H99.4604C99.2929 206.154 98.9706 206.636 98.4933 207.021C98.0244 207.398 97.4216 207.586 96.6848 207.586ZM96.6848 201.947C96.1824 201.947 95.7344 202.102 95.3409 202.412C94.9558 202.713 94.7339 203.157 94.6753 203.743H98.5938C98.5687 203.182 98.3761 202.743 98.016 202.424C97.656 202.106 97.2122 201.947 96.6848 201.947ZM101.034 207.436V201.206H101.989L102.052 202.324C102.253 201.93 102.542 201.621 102.918 201.395C103.295 201.168 103.722 201.055 104.199 201.055C104.936 201.055 105.522 201.281 105.958 201.734C106.402 202.177 106.623 202.864 106.623 203.793V207.436H105.568V203.906C105.568 202.609 105.033 201.96 103.961 201.96C103.425 201.96 102.977 202.156 102.617 202.55C102.265 202.935 102.089 203.488 102.089 204.208V207.436H101.034ZM111.048 207.586C110.428 207.586 109.884 207.444 109.415 207.159C108.954 206.875 108.594 206.485 108.335 205.991C108.084 205.497 107.958 204.936 107.958 204.308C107.958 203.68 108.088 203.124 108.347 202.638C108.607 202.144 108.967 201.759 109.427 201.482C109.888 201.198 110.432 201.055 111.06 201.055C111.571 201.055 112.023 201.16 112.417 201.369C112.81 201.579 113.116 201.872 113.333 202.249V198.393H114.388V207.436H113.434L113.333 206.406C113.132 206.707 112.844 206.979 112.467 207.222C112.09 207.465 111.617 207.586 111.048 207.586ZM111.161 206.669C111.579 206.669 111.948 206.573 112.266 206.381C112.592 206.18 112.844 205.903 113.019 205.552C113.204 205.2 113.296 204.79 113.296 204.321C113.296 203.852 113.204 203.442 113.019 203.09C112.844 202.738 112.592 202.466 112.266 202.274C111.948 202.073 111.579 201.972 111.161 201.972C110.75 201.972 110.382 202.073 110.055 202.274C109.737 202.466 109.486 202.738 109.302 203.09C109.126 203.442 109.038 203.852 109.038 204.321C109.038 204.79 109.126 205.2 109.302 205.552C109.486 205.903 109.737 206.18 110.055 206.381C110.382 206.573 110.75 206.669 111.161 206.669Z" fill="#68718B"/>
<rect x="264.792" y="174.876" width="214.555" height="206.182" rx="10.4661" fill="white"/>
<rect x="288" y="339" width="159" height="8" rx="4" fill="#EDF1FC"/>
<rect x="288" y="358" width="53" height="8" rx="4" fill="#EDF1FC"/>
<rect x="348" y="358" width="99" height="8" rx="4" fill="#EDF1FC"/>
<path d="M376.734 193.365C371.015 192.15 365.057 192.776 359.715 195.154C354.373 197.532 349.921 201.541 346.998 206.605C344.074 211.669 342.829 217.528 343.44 223.344C344.051 229.159 346.488 234.632 350.4 238.977C354.313 243.323 359.501 246.318 365.22 247.534C370.94 248.749 376.898 248.123 382.24 245.745C387.581 243.367 392.033 239.358 394.957 234.294C397.881 229.23 399.126 223.371 398.515 217.555L370.977 220.45L376.734 193.365Z" fill="#0097FE"/>
<path d="M380.372 188.087C386.532 189.396 392.119 192.622 396.332 197.302C400.546 201.982 403.17 207.875 403.828 214.138L374.172 217.255L380.372 188.087Z" fill="#FFAE00"/>
<line opacity="0.3" x1="369.977" y1="273.258" x2="369.977" y2="317.215" stroke="#B4B6C4" stroke-width="1.04661"/>
<path d="M310.839 292.509C309.736 292.509 308.808 292.306 308.055 291.902C307.301 291.497 306.694 290.953 306.234 290.269C305.773 289.585 305.438 288.825 305.229 287.987C305.034 287.15 304.936 286.292 304.936 285.413C304.936 283.78 305.166 282.364 305.627 281.163C306.087 279.949 306.75 279.014 307.615 278.359C308.48 277.689 309.527 277.354 310.755 277.354C311.76 277.354 312.611 277.556 313.309 277.961C314.02 278.352 314.572 278.868 314.962 279.51C315.353 280.152 315.583 280.843 315.653 281.582H313.162C313.037 280.94 312.764 280.445 312.346 280.096C311.927 279.747 311.39 279.573 310.734 279.573C309.799 279.573 309.046 280.005 308.473 280.87C307.901 281.722 307.594 283.026 307.552 284.785C307.887 284.213 308.39 283.738 309.059 283.361C309.729 282.985 310.476 282.796 311.299 282.796C312.109 282.796 312.869 282.992 313.581 283.382C314.293 283.773 314.865 284.324 315.297 285.036C315.744 285.748 315.967 286.585 315.967 287.548C315.967 288.427 315.751 289.243 315.318 289.997C314.9 290.75 314.3 291.357 313.518 291.818C312.751 292.279 311.857 292.509 310.839 292.509ZM310.692 290.206C311.474 290.206 312.116 289.969 312.618 289.495C313.134 289.006 313.392 288.392 313.392 287.652C313.392 286.871 313.134 286.243 312.618 285.769C312.102 285.294 311.446 285.057 310.65 285.057C310.134 285.057 309.667 285.176 309.248 285.413C308.843 285.636 308.522 285.943 308.285 286.334C308.048 286.711 307.929 287.136 307.929 287.611C307.929 288.364 308.187 288.985 308.704 289.474C309.234 289.962 309.897 290.206 310.692 290.206ZM317.979 292.258V290.311C318.872 289.571 319.737 288.839 320.574 288.113C321.425 287.387 322.179 286.669 322.835 285.957C323.505 285.245 324.035 284.555 324.426 283.885C324.83 283.201 325.033 282.538 325.033 281.896C325.033 281.296 324.865 280.766 324.53 280.305C324.209 279.845 323.672 279.615 322.919 279.615C322.151 279.615 321.572 279.866 321.181 280.368C320.79 280.87 320.595 281.477 320.595 282.189H317.999C318.027 281.115 318.265 280.222 318.711 279.51C319.158 278.784 319.751 278.247 320.49 277.898C321.23 277.535 322.06 277.354 322.981 277.354C324.475 277.354 325.633 277.766 326.456 278.589C327.293 279.398 327.712 280.452 327.712 281.75C327.712 282.559 327.524 283.347 327.147 284.115C326.784 284.882 326.303 285.622 325.703 286.334C325.102 287.045 324.454 287.715 323.756 288.343C323.058 288.957 322.381 289.529 321.725 290.06H328.068V292.258H317.979ZM333.307 284.806C332.637 284.806 332.03 284.659 331.486 284.366C330.942 284.059 330.509 283.627 330.188 283.068C329.867 282.51 329.707 281.847 329.707 281.08C329.707 280.312 329.867 279.649 330.188 279.091C330.509 278.533 330.942 278.107 331.486 277.814C332.03 277.507 332.644 277.354 333.328 277.354C333.998 277.354 334.598 277.507 335.128 277.814C335.672 278.107 336.105 278.533 336.426 279.091C336.747 279.649 336.907 280.312 336.907 281.08C336.907 281.847 336.747 282.51 336.426 283.068C336.105 283.627 335.672 284.059 335.128 284.366C334.584 284.659 333.977 284.806 333.307 284.806ZM332.512 292.258L340.78 277.605H343.396L335.128 292.258H332.512ZM333.307 282.943C333.712 282.943 334.061 282.789 334.354 282.482C334.647 282.161 334.793 281.694 334.793 281.08C334.793 280.466 334.647 279.998 334.354 279.677C334.075 279.356 333.726 279.196 333.307 279.196C332.888 279.196 332.532 279.356 332.239 279.677C331.96 279.998 331.821 280.466 331.821 281.08C331.821 281.694 331.96 282.161 332.239 282.482C332.532 282.789 332.888 282.943 333.307 282.943ZM342.685 292.509C342.015 292.509 341.408 292.362 340.864 292.069C340.319 291.762 339.887 291.33 339.566 290.771C339.245 290.213 339.084 289.55 339.084 288.783C339.084 288.015 339.245 287.359 339.566 286.815C339.887 286.257 340.319 285.831 340.864 285.538C341.408 285.231 342.022 285.078 342.706 285.078C343.375 285.078 343.975 285.231 344.506 285.538C345.05 285.831 345.483 286.257 345.804 286.815C346.124 287.359 346.285 288.015 346.285 288.783C346.285 289.55 346.124 290.213 345.804 290.771C345.483 291.33 345.05 291.762 344.506 292.069C343.975 292.362 343.368 292.509 342.685 292.509ZM342.685 290.646C343.103 290.646 343.452 290.492 343.731 290.185C344.024 289.864 344.171 289.397 344.171 288.783C344.171 288.169 344.024 287.701 343.731 287.38C343.452 287.059 343.103 286.899 342.685 286.899C342.266 286.899 341.91 287.059 341.617 287.38C341.338 287.701 341.198 288.169 341.198 288.783C341.198 289.397 341.338 289.864 341.617 290.185C341.91 290.492 342.266 290.646 342.685 290.646Z" fill="#060C3C"/>
<path d="M313.67 313.577C312.609 313.577 311.777 313.281 311.175 312.689C310.572 312.098 310.27 311.277 310.27 310.228H311.694C311.694 310.819 311.839 311.316 312.129 311.718C312.419 312.12 312.927 312.321 313.653 312.321C314.356 312.321 314.842 312.126 315.11 311.735C315.389 311.344 315.528 310.859 315.528 310.278V301.654H316.935V310.278C316.935 311.316 316.645 312.126 316.064 312.706C315.495 313.287 314.697 313.577 313.67 313.577ZM322.361 313.577C321.379 313.577 320.597 313.281 320.017 312.689C319.436 312.087 319.146 311.166 319.146 309.926V305.07H320.553V309.776C320.553 311.506 321.262 312.371 322.679 312.371C323.405 312.371 324.002 312.114 324.471 311.601C324.951 311.076 325.191 310.334 325.191 309.374V305.07H326.598V313.376H325.325L325.225 311.886C324.968 312.41 324.583 312.823 324.069 313.125C323.567 313.426 322.997 313.577 322.361 313.577ZM328.913 313.376V301.319H330.32V313.376H328.913ZM333.53 317.06L335.589 312.572H335.104L331.805 305.07H333.329L336.075 311.534L338.989 305.07H340.446L335.003 317.06H333.53Z" fill="#5D6180"/>
<path d="M400.845 292.509C399.882 292.509 399.01 292.341 398.228 292.006C397.447 291.658 396.819 291.127 396.344 290.416C395.87 289.704 395.619 288.811 395.591 287.736H398.228C398.242 288.448 398.472 289.048 398.919 289.536C399.38 290.011 400.021 290.248 400.845 290.248C401.626 290.248 402.226 290.032 402.645 289.599C403.064 289.167 403.273 288.622 403.273 287.966C403.273 287.199 402.994 286.62 402.436 286.229C401.891 285.824 401.187 285.622 400.321 285.622H399.233V283.424H400.342C401.054 283.424 401.647 283.257 402.122 282.922C402.596 282.587 402.833 282.091 402.833 281.436C402.833 280.891 402.652 280.459 402.289 280.138C401.94 279.803 401.452 279.635 400.824 279.635C400.14 279.635 399.603 279.838 399.212 280.242C398.835 280.647 398.626 281.143 398.584 281.729H395.968C396.023 280.375 396.491 279.308 397.37 278.526C398.263 277.745 399.414 277.354 400.824 277.354C401.829 277.354 402.673 277.535 403.357 277.898C404.054 278.247 404.578 278.714 404.927 279.301C405.289 279.887 405.471 280.536 405.471 281.247C405.471 282.071 405.241 282.768 404.78 283.34C404.333 283.899 403.775 284.275 403.105 284.471C403.929 284.638 404.599 285.043 405.115 285.685C405.631 286.313 405.889 287.108 405.889 288.071C405.889 288.881 405.694 289.62 405.303 290.29C404.913 290.96 404.34 291.497 403.587 291.902C402.847 292.306 401.933 292.509 400.845 292.509ZM413.691 292.509C412.686 292.509 411.779 292.334 410.97 291.985C410.16 291.623 409.511 291.113 409.023 290.457C408.549 289.802 408.311 289.041 408.311 288.176C408.311 287.283 408.542 286.501 409.002 285.831C409.477 285.162 410.098 284.68 410.865 284.387C410.195 284.094 409.665 283.675 409.274 283.131C408.884 282.573 408.688 281.952 408.688 281.268C408.688 280.57 408.877 279.928 409.253 279.342C409.63 278.742 410.188 278.261 410.928 277.898C411.681 277.535 412.602 277.354 413.691 277.354C414.779 277.354 415.693 277.535 416.433 277.898C417.173 278.261 417.731 278.742 418.108 279.342C418.484 279.928 418.673 280.57 418.673 281.268C418.673 281.938 418.47 282.559 418.066 283.131C417.675 283.689 417.152 284.108 416.496 284.387C417.277 284.68 417.898 285.162 418.359 285.831C418.819 286.501 419.05 287.283 419.05 288.176C419.05 289.041 418.812 289.802 418.338 290.457C417.863 291.113 417.215 291.623 416.391 291.985C415.582 292.334 414.682 292.509 413.691 292.509ZM413.691 283.592C414.417 283.592 414.989 283.403 415.407 283.026C415.826 282.65 416.035 282.168 416.035 281.582C416.035 280.94 415.826 280.438 415.407 280.075C415.003 279.712 414.431 279.531 413.691 279.531C412.937 279.531 412.358 279.712 411.954 280.075C411.549 280.438 411.347 280.94 411.347 281.582C411.347 282.182 411.549 282.671 411.954 283.047C412.372 283.41 412.951 283.592 413.691 283.592ZM413.691 290.269C414.584 290.269 415.261 290.053 415.721 289.62C416.182 289.174 416.412 288.615 416.412 287.946C416.412 287.206 416.168 286.627 415.68 286.208C415.205 285.79 414.542 285.58 413.691 285.58C412.84 285.58 412.163 285.79 411.661 286.208C411.172 286.627 410.928 287.206 410.928 287.946C410.928 288.615 411.158 289.174 411.619 289.62C412.093 290.053 412.784 290.269 413.691 290.269ZM424.699 284.806C424.029 284.806 423.422 284.659 422.878 284.366C422.334 284.059 421.901 283.627 421.58 283.068C421.259 282.51 421.099 281.847 421.099 281.08C421.099 280.312 421.259 279.649 421.58 279.091C421.901 278.533 422.334 278.107 422.878 277.814C423.422 277.507 424.036 277.354 424.72 277.354C425.39 277.354 425.99 277.507 426.52 277.814C427.065 278.107 427.497 278.533 427.818 279.091C428.139 279.649 428.3 280.312 428.3 281.08C428.3 281.847 428.139 282.51 427.818 283.068C427.497 283.627 427.065 284.059 426.52 284.366C425.976 284.659 425.369 284.806 424.699 284.806ZM423.904 292.258L432.172 277.605H434.789L426.52 292.258H423.904ZM424.699 282.943C425.104 282.943 425.453 282.789 425.746 282.482C426.039 282.161 426.186 281.694 426.186 281.08C426.186 280.466 426.039 279.998 425.746 279.677C425.467 279.356 425.118 279.196 424.699 279.196C424.281 279.196 423.925 279.356 423.632 279.677C423.353 279.998 423.213 280.466 423.213 281.08C423.213 281.694 423.353 282.161 423.632 282.482C423.925 282.789 424.281 282.943 424.699 282.943ZM434.077 292.509C433.407 292.509 432.8 292.362 432.256 292.069C431.712 291.762 431.279 291.33 430.958 290.771C430.637 290.213 430.477 289.55 430.477 288.783C430.477 288.015 430.637 287.359 430.958 286.815C431.279 286.257 431.712 285.831 432.256 285.538C432.8 285.231 433.414 285.078 434.098 285.078C434.768 285.078 435.368 285.231 435.898 285.538C436.442 285.831 436.875 286.257 437.196 286.815C437.517 287.359 437.677 288.015 437.677 288.783C437.677 289.55 437.517 290.213 437.196 290.771C436.875 291.33 436.442 291.762 435.898 292.069C435.368 292.362 434.761 292.509 434.077 292.509ZM434.077 290.646C434.496 290.646 434.844 290.492 435.124 290.185C435.417 289.864 435.563 289.397 435.563 288.783C435.563 288.169 435.417 287.701 435.124 287.38C434.844 287.059 434.496 286.899 434.077 286.899C433.658 286.899 433.302 287.059 433.009 287.38C432.73 287.701 432.591 288.169 432.591 288.783C432.591 289.397 432.73 289.864 433.009 290.185C433.302 290.492 433.658 290.646 434.077 290.646Z" fill="#060C3C"/>
<path d="M389.932 313.376L394.252 301.654H395.743L400.046 313.376H398.556L397.484 310.362H392.494L391.406 313.376H389.932ZM392.913 309.223H397.066L394.989 303.429L392.913 309.223ZM404.556 313.577C403.574 313.577 402.793 313.281 402.212 312.689C401.631 312.087 401.341 311.166 401.341 309.926V305.07H402.748V309.776C402.748 311.506 403.457 312.371 404.875 312.371C405.6 312.371 406.198 312.114 406.666 311.601C407.146 311.076 407.386 310.334 407.386 309.374V305.07H408.793V313.376H407.52L407.42 311.886C407.163 312.41 406.778 312.823 406.264 313.125C405.762 313.426 405.193 313.577 404.556 313.577ZM414.391 310.764C413.922 310.764 413.492 310.702 413.101 310.579L412.264 311.366C412.387 311.456 412.537 311.534 412.716 311.601C412.906 311.657 413.174 311.713 413.52 311.768C413.866 311.813 414.352 311.863 414.977 311.919C416.093 311.997 416.891 312.254 417.371 312.689C417.851 313.125 418.091 313.694 418.091 314.397C418.091 314.878 417.957 315.335 417.69 315.771C417.433 316.206 417.031 316.563 416.484 316.842C415.948 317.121 415.256 317.261 414.407 317.261C413.659 317.261 412.995 317.161 412.415 316.96C411.834 316.77 411.382 316.474 411.058 316.072C410.734 315.681 410.573 315.185 410.573 314.582C410.573 314.269 410.656 313.929 410.824 313.56C410.991 313.203 411.304 312.862 411.762 312.539C411.516 312.438 411.304 312.332 411.125 312.221C410.958 312.098 410.801 311.964 410.656 311.819V311.433L412.08 310.027C411.421 309.469 411.092 308.732 411.092 307.816C411.092 307.269 411.22 306.773 411.477 306.326C411.734 305.879 412.108 305.528 412.599 305.271C413.09 305.003 413.687 304.869 414.391 304.869C414.871 304.869 415.306 304.936 415.697 305.07H418.761V306.125L417.204 306.192C417.528 306.661 417.69 307.202 417.69 307.816C417.69 308.363 417.556 308.86 417.288 309.307C417.031 309.753 416.657 310.111 416.166 310.378C415.686 310.635 415.094 310.764 414.391 310.764ZM414.391 309.608C414.982 309.608 415.451 309.457 415.797 309.156C416.155 308.843 416.333 308.397 416.333 307.816C416.333 307.247 416.155 306.812 415.797 306.51C415.451 306.198 414.982 306.041 414.391 306.041C413.788 306.041 413.308 306.198 412.95 306.51C412.604 306.812 412.431 307.247 412.431 307.816C412.431 308.397 412.604 308.843 412.95 309.156C413.308 309.457 413.788 309.608 414.391 309.608ZM411.946 314.448C411.946 315.006 412.18 315.419 412.649 315.687C413.118 315.966 413.704 316.106 414.407 316.106C415.1 316.106 415.652 315.955 416.065 315.653C416.489 315.352 416.702 314.95 416.702 314.448C416.702 314.09 416.556 313.778 416.266 313.51C415.976 313.253 415.44 313.102 414.659 313.058C414.045 313.013 413.514 312.957 413.068 312.89C412.61 313.136 412.309 313.398 412.163 313.677C412.018 313.968 411.946 314.224 411.946 314.448ZM423.379 313.577C422.397 313.577 421.615 313.281 421.035 312.689C420.454 312.087 420.164 311.166 420.164 309.926V305.07H421.571V309.776C421.571 311.506 422.279 312.371 423.697 312.371C424.423 312.371 425.02 312.114 425.489 311.601C425.969 311.076 426.209 310.334 426.209 309.374V305.07H427.616V313.376H426.343L426.243 311.886C425.986 312.41 425.601 312.823 425.087 313.125C424.585 313.426 424.015 313.577 423.379 313.577ZM433.113 313.577C432.119 313.577 431.293 313.326 430.634 312.823C429.976 312.321 429.591 311.64 429.479 310.78H430.919C431.008 311.216 431.237 311.595 431.606 311.919C431.985 312.232 432.493 312.388 433.13 312.388C433.721 312.388 434.157 312.265 434.436 312.02C434.715 311.763 434.854 311.461 434.854 311.115C434.854 310.613 434.67 310.278 434.302 310.111C433.944 309.943 433.437 309.792 432.778 309.658C432.331 309.569 431.885 309.441 431.438 309.273C430.992 309.106 430.618 308.871 430.316 308.57C430.015 308.257 429.864 307.85 429.864 307.348C429.864 306.622 430.132 306.03 430.668 305.572C431.215 305.104 431.952 304.869 432.878 304.869C433.76 304.869 434.48 305.092 435.039 305.539C435.608 305.974 435.937 306.6 436.027 307.414H434.637C434.581 306.99 434.397 306.661 434.084 306.426C433.783 306.181 433.375 306.058 432.862 306.058C432.359 306.058 431.968 306.164 431.689 306.376C431.421 306.588 431.287 306.867 431.287 307.214C431.287 307.548 431.461 307.811 431.807 308.001C432.164 308.19 432.644 308.352 433.247 308.486C433.76 308.598 434.246 308.737 434.704 308.905C435.173 309.061 435.552 309.301 435.842 309.625C436.144 309.938 436.294 310.395 436.294 310.998C436.306 311.746 436.021 312.366 435.44 312.857C434.871 313.337 434.095 313.577 433.113 313.577ZM441.21 313.376C440.451 313.376 439.854 313.192 439.418 312.823C438.983 312.455 438.765 311.791 438.765 310.831V306.259H437.325V305.07H438.765L438.949 303.077H440.172V305.07H442.617V306.259H440.172V310.831C440.172 311.355 440.278 311.713 440.49 311.902C440.702 312.081 441.076 312.17 441.612 312.17H442.483V313.376H441.21Z" fill="#5D6180"/>
<circle cx="31.3983" cy="133.012" r="6.27966" fill="#C58DF0"/>
<circle cx="56.5168" cy="133.012" r="6.27966" fill="#FFCC5E"/>
<circle cx="81.6356" cy="133.012" r="6.27966" fill="#40E986"/>
</g>
<g filter="url(#filter1_d_2775_46291)">
<g filter="url(#filter2_d_2775_46291)">
<rect x="205" y="64" width="184" height="90" rx="9.15849" fill="url(#paint0_linear_2775_46291)"/>
</g>
<rect x="223" y="80" width="63.8599" height="8" rx="4" fill="white"/>
<rect x="223" y="110" width="149" height="8" rx="4" fill="white"/>
<rect x="223" y="131" width="149" height="8" rx="4" fill="white"/>
</g>
</g>
<defs>
<filter id="filter0_d_2775_46291" x="-88" y="42.0571" width="701.699" height="484.12" filterUnits="userSpaceOnUse" color-interpolation-filters="sRGB">
<feFlood flood-opacity="0" result="BackgroundImageFix"/>
<feColorMatrix in="SourceAlpha" type="matrix" values="0 0 0 0 0 0 0 0 0 0 0 0 0 0 0 0 0 0 127 0" result="hardAlpha"/>
<feOffset dx="8" dy="24"/>
<feGaussianBlur stdDeviation="48"/>
<feComposite in2="hardAlpha" operator="out"/>
<feColorMatrix type="matrix" values="0 0 0 0 0.494118 0 0 0 0 0.541176 0 0 0 0 0.992157 0 0 0 0.08 0"/>
<feBlend mode="normal" in2="BackgroundImageFix" result="effect1_dropShadow_2775_46291"/>
<feBlend mode="normal" in="SourceGraphic" in2="effect1_dropShadow_2775_46291" result="shape"/>
</filter>
<filter id="filter1_d_2775_46291" x="117" y="-8" width="376" height="282" filterUnits="userSpaceOnUse" color-interpolation-filters="sRGB">
<feFlood flood-opacity="0" result="BackgroundImageFix"/>
<feColorMatrix in="SourceAlpha" type="matrix" values="0 0 0 0 0 0 0 0 0 0 0 0 0 0 0 0 0 0 127 0" result="hardAlpha"/>
<feOffset dx="8" dy="24"/>
<feGaussianBlur stdDeviation="48"/>
<feComposite in2="hardAlpha" operator="out"/>
<feColorMatrix type="matrix" values="0 0 0 0 0.494118 0 0 0 0 0.541176 0 0 0 0 0.992157 0 0 0 0.08 0"/>
<feBlend mode="normal" in2="BackgroundImageFix" result="effect1_dropShadow_2775_46291"/>
<feBlend mode="normal" in="SourceGraphic" in2="effect1_dropShadow_2775_46291" result="shape"/>
</filter>
<filter id="filter2_d_2775_46291" x="186.135" y="50.7946" width="221.73" height="127.73" filterUnits="userSpaceOnUse" color-interpolation-filters="sRGB">
<feFlood flood-opacity="0" result="BackgroundImageFix"/>
<feColorMatrix in="SourceAlpha" type="matrix" values="0 0 0 0 0 0 0 0 0 0 0 0 0 0 0 0 0 0 127 0" result="hardAlpha"/>
<feOffset dy="5.65946"/>
<feGaussianBlur stdDeviation="9.43244"/>
<feColorMatrix type="matrix" values="0 0 0 0 0.11 0 0 0 0 0.14137 0 0 0 0 0.4125 0 0 0 0.05 0"/>
<feBlend mode="normal" in2="BackgroundImageFix" result="effect1_dropShadow_2775_46291"/>
<feBlend mode="normal" in="SourceGraphic" in2="effect1_dropShadow_2775_46291" result="shape"/>
</filter>
<linearGradient id="paint0_linear_2775_46291" x1="205" y1="64" x2="276.046" y2="209.249" gradientUnits="userSpaceOnUse">
<stop stop-color="#AC60E5"/>
<stop offset="1" stop-color="#0C87F0"/>
</linearGradient>
<clipPath id="clip0_2775_46291">
<rect width="509" height="406" fill="white"/>
</clipPath>
</defs>
</svg>
