<svg width="32" height="32" viewBox="0 0 32 32" fill="none" xmlns="http://www.w3.org/2000/svg">
<path fill-rule="evenodd" clip-rule="evenodd" d="M25.3346 26.6665C24.5973 26.6665 24.0013 26.0705 24.0013 25.3332C24.0013 24.5958 24.5973 23.9998 25.3346 23.9998C26.072 23.9998 26.668 24.5958 26.668 25.3332C26.668 26.0705 26.072 26.6665 25.3346 26.6665ZM25.3346 21.3332C23.1293 21.3332 21.3346 23.1278 21.3346 25.3332C21.3346 27.5385 23.1293 29.3332 25.3346 29.3332C27.54 29.3332 29.3346 27.5385 29.3346 25.3332C29.3346 23.1278 27.54 21.3332 25.3346 21.3332ZM16.0013 26.6665C15.264 26.6665 14.668 26.0705 14.668 25.3332C14.668 24.5958 15.264 23.9998 16.0013 23.9998C16.7386 23.9998 17.3346 24.5958 17.3346 25.3332C17.3346 26.0705 16.7386 26.6665 16.0013 26.6665ZM16.0013 21.3332C13.796 21.3332 12.0013 23.1278 12.0013 25.3332C12.0013 27.5385 13.796 29.3332 16.0013 29.3332C18.2066 29.3332 20.0013 27.5385 20.0013 25.3332C20.0013 23.1278 18.2066 21.3332 16.0013 21.3332ZM6.66797 26.6665C5.93064 26.6665 5.33464 26.0705 5.33464 25.3332C5.33464 24.5958 5.93064 23.9998 6.66797 23.9998C7.4053 23.9998 8.0013 24.5958 8.0013 25.3332C8.0013 26.0705 7.4053 26.6665 6.66797 26.6665ZM6.66797 21.3332C4.46264 21.3332 2.66797 23.1278 2.66797 25.3332C2.66797 27.5385 4.46264 29.3332 6.66797 29.3332C8.8733 29.3332 10.668 27.5385 10.668 25.3332C10.668 23.1278 8.8733 21.3332 6.66797 21.3332ZM25.3346 17.3332C24.5973 17.3332 24.0013 16.7372 24.0013 15.9998C24.0013 15.2625 24.5973 14.6665 25.3346 14.6665C26.072 14.6665 26.668 15.2625 26.668 15.9998C26.668 16.7372 26.072 17.3332 25.3346 17.3332ZM25.3346 11.9998C23.1293 11.9998 21.3346 13.7945 21.3346 15.9998C21.3346 18.2052 23.1293 19.9998 25.3346 19.9998C27.54 19.9998 29.3346 18.2052 29.3346 15.9998C29.3346 13.7945 27.54 11.9998 25.3346 11.9998ZM16.0013 17.3332C15.264 17.3332 14.668 16.7372 14.668 15.9998C14.668 15.2625 15.264 14.6665 16.0013 14.6665C16.7386 14.6665 17.3346 15.2625 17.3346 15.9998C17.3346 16.7372 16.7386 17.3332 16.0013 17.3332ZM16.0013 11.9998C13.796 11.9998 12.0013 13.7945 12.0013 15.9998C12.0013 18.2052 13.796 19.9998 16.0013 19.9998C18.2066 19.9998 20.0013 18.2052 20.0013 15.9998C20.0013 13.7945 18.2066 11.9998 16.0013 11.9998ZM6.66797 17.3332C5.93064 17.3332 5.33464 16.7372 5.33464 15.9998C5.33464 15.2625 5.93064 14.6665 6.66797 14.6665C7.4053 14.6665 8.0013 15.2625 8.0013 15.9998C8.0013 16.7372 7.4053 17.3332 6.66797 17.3332ZM6.66797 11.9998C4.46264 11.9998 2.66797 13.7945 2.66797 15.9998C2.66797 18.2052 4.46264 19.9998 6.66797 19.9998C8.8733 19.9998 10.668 18.2052 10.668 15.9998C10.668 13.7945 8.8733 11.9998 6.66797 11.9998ZM25.3346 5.33317C26.072 5.33317 26.668 5.92917 26.668 6.6665C26.668 7.40384 26.072 7.99984 25.3346 7.99984C24.5973 7.99984 24.0013 7.40384 24.0013 6.6665C24.0013 5.92917 24.5973 5.33317 25.3346 5.33317ZM25.3346 10.6665C27.54 10.6665 29.3346 8.87184 29.3346 6.6665C29.3346 4.46117 27.54 2.6665 25.3346 2.6665C23.1293 2.6665 21.3346 4.46117 21.3346 6.6665C21.3346 8.87184 23.1293 10.6665 25.3346 10.6665ZM16.0013 7.99984C15.264 7.99984 14.668 7.4025 14.668 6.6665C14.668 5.92917 15.264 5.33317 16.0013 5.33317C16.7386 5.33317 17.3346 5.92917 17.3346 6.6665C17.3346 7.4025 16.7386 7.99984 16.0013 7.99984ZM16.0013 2.6665C13.796 2.6665 12.0013 4.46117 12.0013 6.6665C12.0013 8.87184 13.796 10.6665 16.0013 10.6665C18.2066 10.6665 20.0013 8.87184 20.0013 6.6665C20.0013 4.46117 18.2066 2.6665 16.0013 2.6665ZM6.66797 7.99984C5.93064 7.99984 5.33464 7.40384 5.33464 6.6665C5.33464 5.92917 5.93064 5.33317 6.66797 5.33317C7.4053 5.33317 8.0013 5.92917 8.0013 6.6665C8.0013 7.40384 7.4053 7.99984 6.66797 7.99984ZM6.66797 2.6665C4.46264 2.6665 2.66797 4.46117 2.66797 6.6665C2.66797 8.87184 4.46264 10.6665 6.66797 10.6665C8.8733 10.6665 10.668 8.87184 10.668 6.6665C10.668 4.46117 8.8733 2.6665 6.66797 2.6665Z" fill="#03133D"/>
<mask id="mask0_1919_31976" style="mask-type:alpha" maskUnits="userSpaceOnUse" x="2" y="2" width="28" height="28">
<path fill-rule="evenodd" clip-rule="evenodd" d="M25.3346 26.6665C24.5973 26.6665 24.0013 26.0705 24.0013 25.3332C24.0013 24.5958 24.5973 23.9998 25.3346 23.9998C26.072 23.9998 26.668 24.5958 26.668 25.3332C26.668 26.0705 26.072 26.6665 25.3346 26.6665ZM25.3346 21.3332C23.1293 21.3332 21.3346 23.1278 21.3346 25.3332C21.3346 27.5385 23.1293 29.3332 25.3346 29.3332C27.54 29.3332 29.3346 27.5385 29.3346 25.3332C29.3346 23.1278 27.54 21.3332 25.3346 21.3332ZM16.0013 26.6665C15.264 26.6665 14.668 26.0705 14.668 25.3332C14.668 24.5958 15.264 23.9998 16.0013 23.9998C16.7386 23.9998 17.3346 24.5958 17.3346 25.3332C17.3346 26.0705 16.7386 26.6665 16.0013 26.6665ZM16.0013 21.3332C13.796 21.3332 12.0013 23.1278 12.0013 25.3332C12.0013 27.5385 13.796 29.3332 16.0013 29.3332C18.2066 29.3332 20.0013 27.5385 20.0013 25.3332C20.0013 23.1278 18.2066 21.3332 16.0013 21.3332ZM6.66797 26.6665C5.93064 26.6665 5.33464 26.0705 5.33464 25.3332C5.33464 24.5958 5.93064 23.9998 6.66797 23.9998C7.4053 23.9998 8.0013 24.5958 8.0013 25.3332C8.0013 26.0705 7.4053 26.6665 6.66797 26.6665ZM6.66797 21.3332C4.46264 21.3332 2.66797 23.1278 2.66797 25.3332C2.66797 27.5385 4.46264 29.3332 6.66797 29.3332C8.8733 29.3332 10.668 27.5385 10.668 25.3332C10.668 23.1278 8.8733 21.3332 6.66797 21.3332ZM25.3346 17.3332C24.5973 17.3332 24.0013 16.7372 24.0013 15.9998C24.0013 15.2625 24.5973 14.6665 25.3346 14.6665C26.072 14.6665 26.668 15.2625 26.668 15.9998C26.668 16.7372 26.072 17.3332 25.3346 17.3332ZM25.3346 11.9998C23.1293 11.9998 21.3346 13.7945 21.3346 15.9998C21.3346 18.2052 23.1293 19.9998 25.3346 19.9998C27.54 19.9998 29.3346 18.2052 29.3346 15.9998C29.3346 13.7945 27.54 11.9998 25.3346 11.9998ZM16.0013 17.3332C15.264 17.3332 14.668 16.7372 14.668 15.9998C14.668 15.2625 15.264 14.6665 16.0013 14.6665C16.7386 14.6665 17.3346 15.2625 17.3346 15.9998C17.3346 16.7372 16.7386 17.3332 16.0013 17.3332ZM16.0013 11.9998C13.796 11.9998 12.0013 13.7945 12.0013 15.9998C12.0013 18.2052 13.796 19.9998 16.0013 19.9998C18.2066 19.9998 20.0013 18.2052 20.0013 15.9998C20.0013 13.7945 18.2066 11.9998 16.0013 11.9998ZM6.66797 17.3332C5.93064 17.3332 5.33464 16.7372 5.33464 15.9998C5.33464 15.2625 5.93064 14.6665 6.66797 14.6665C7.4053 14.6665 8.0013 15.2625 8.0013 15.9998C8.0013 16.7372 7.4053 17.3332 6.66797 17.3332ZM6.66797 11.9998C4.46264 11.9998 2.66797 13.7945 2.66797 15.9998C2.66797 18.2052 4.46264 19.9998 6.66797 19.9998C8.8733 19.9998 10.668 18.2052 10.668 15.9998C10.668 13.7945 8.8733 11.9998 6.66797 11.9998ZM25.3346 5.33317C26.072 5.33317 26.668 5.92917 26.668 6.6665C26.668 7.40384 26.072 7.99984 25.3346 7.99984C24.5973 7.99984 24.0013 7.40384 24.0013 6.6665C24.0013 5.92917 24.5973 5.33317 25.3346 5.33317ZM25.3346 10.6665C27.54 10.6665 29.3346 8.87184 29.3346 6.6665C29.3346 4.46117 27.54 2.6665 25.3346 2.6665C23.1293 2.6665 21.3346 4.46117 21.3346 6.6665C21.3346 8.87184 23.1293 10.6665 25.3346 10.6665ZM16.0013 7.99984C15.264 7.99984 14.668 7.4025 14.668 6.6665C14.668 5.92917 15.264 5.33317 16.0013 5.33317C16.7386 5.33317 17.3346 5.92917 17.3346 6.6665C17.3346 7.4025 16.7386 7.99984 16.0013 7.99984ZM16.0013 2.6665C13.796 2.6665 12.0013 4.46117 12.0013 6.6665C12.0013 8.87184 13.796 10.6665 16.0013 10.6665C18.2066 10.6665 20.0013 8.87184 20.0013 6.6665C20.0013 4.46117 18.2066 2.6665 16.0013 2.6665ZM6.66797 7.99984C5.93064 7.99984 5.33464 7.40384 5.33464 6.6665C5.33464 5.92917 5.93064 5.33317 6.66797 5.33317C7.4053 5.33317 8.0013 5.92917 8.0013 6.6665C8.0013 7.40384 7.4053 7.99984 6.66797 7.99984ZM6.66797 2.6665C4.46264 2.6665 2.66797 4.46117 2.66797 6.6665C2.66797 8.87184 4.46264 10.6665 6.66797 10.6665C8.8733 10.6665 10.668 8.87184 10.668 6.6665C10.668 4.46117 8.8733 2.6665 6.66797 2.6665Z" fill="white"/>
</mask>
<g mask="url(#mask0_1919_31976)">
<rect width="32" height="32" fill="white"/>
</g>
</svg>
