<svg width="32" height="32" viewBox="0 0 32 32" fill="none" xmlns="http://www.w3.org/2000/svg">
<path fill-rule="evenodd" clip-rule="evenodd" d="M23.6797 20.7198L15.9997 25.1292L8.31966 20.7198L10.5783 19.7585L15.3357 22.4892C15.541 22.6078 15.7703 22.6665 15.9997 22.6665C16.229 22.6665 16.457 22.6078 16.6637 22.4892L21.421 19.7572L23.6797 20.7198ZM15.3357 17.1558C15.541 17.2745 15.7703 17.3332 15.9997 17.3332C16.229 17.3332 16.457 17.2745 16.6637 17.1558L21.421 14.4238L23.6797 15.3865L15.9997 19.7958L8.31966 15.3865L10.5783 14.4238L15.3357 17.1558ZM15.9997 6.78255L23.6797 10.0532L15.9997 14.4626L8.31966 10.0532L15.9997 6.78255ZM27.9971 15.1305C27.9665 14.6252 27.6531 14.1812 27.1878 13.9825L24.3185 12.7612L27.3305 11.0318C27.7691 10.7812 28.0265 10.3025 27.9971 9.79718C27.9665 9.29318 27.6531 8.84785 27.1878 8.64918L16.5211 4.10651C16.1878 3.96385 15.8105 3.96385 15.4771 4.10651L4.81045 8.64918C4.34512 8.84785 4.03179 9.29318 4.00245 9.79718C3.97179 10.3025 4.23045 10.7812 4.66912 11.0318L7.67979 12.7612L4.81045 13.9825C4.34512 14.1812 4.03179 14.6252 4.00245 15.1305C3.97179 15.6358 4.23045 16.1145 4.66912 16.3652L7.67979 18.0945L4.81045 19.3158C4.34512 19.5145 4.03179 19.9585 4.00245 20.4638C3.97179 20.9692 4.23045 21.4478 4.66912 21.6985L15.3358 27.8225C15.5411 27.9412 15.7705 27.9998 15.9998 27.9998C16.2291 27.9998 16.4571 27.9412 16.6638 27.8225L27.3305 21.6985C27.7691 21.4478 28.0265 20.9692 27.9971 20.4638C27.9665 19.9598 27.6531 19.5145 27.1891 19.3158L24.3198 18.0932L27.3305 16.3652C27.7691 16.1145 28.0265 15.6358 27.9971 15.1305Z" fill="#03133D"/>
<mask id="mask0_1919_31971" style="mask-type:alpha" maskUnits="userSpaceOnUse" x="4" y="3" width="24" height="25">
<path fill-rule="evenodd" clip-rule="evenodd" d="M23.6797 20.7198L15.9997 25.1292L8.31966 20.7198L10.5783 19.7585L15.3357 22.4892C15.541 22.6078 15.7703 22.6665 15.9997 22.6665C16.229 22.6665 16.457 22.6078 16.6637 22.4892L21.421 19.7572L23.6797 20.7198ZM15.3357 17.1558C15.541 17.2745 15.7703 17.3332 15.9997 17.3332C16.229 17.3332 16.457 17.2745 16.6637 17.1558L21.421 14.4238L23.6797 15.3865L15.9997 19.7958L8.31966 15.3865L10.5783 14.4238L15.3357 17.1558ZM15.9997 6.78255L23.6797 10.0532L15.9997 14.4626L8.31966 10.0532L15.9997 6.78255ZM27.9971 15.1305C27.9665 14.6252 27.6531 14.1812 27.1878 13.9825L24.3185 12.7612L27.3305 11.0318C27.7691 10.7812 28.0265 10.3025 27.9971 9.79718C27.9665 9.29318 27.6531 8.84785 27.1878 8.64918L16.5211 4.10651C16.1878 3.96385 15.8105 3.96385 15.4771 4.10651L4.81045 8.64918C4.34512 8.84785 4.03179 9.29318 4.00245 9.79718C3.97179 10.3025 4.23045 10.7812 4.66912 11.0318L7.67979 12.7612L4.81045 13.9825C4.34512 14.1812 4.03179 14.6252 4.00245 15.1305C3.97179 15.6358 4.23045 16.1145 4.66912 16.3652L7.67979 18.0945L4.81045 19.3158C4.34512 19.5145 4.03179 19.9585 4.00245 20.4638C3.97179 20.9692 4.23045 21.4478 4.66912 21.6985L15.3358 27.8225C15.5411 27.9412 15.7705 27.9998 15.9998 27.9998C16.2291 27.9998 16.4571 27.9412 16.6638 27.8225L27.3305 21.6985C27.7691 21.4478 28.0265 20.9692 27.9971 20.4638C27.9665 19.9598 27.6531 19.5145 27.1891 19.3158L24.3198 18.0932L27.3305 16.3652C27.7691 16.1145 28.0265 15.6358 27.9971 15.1305Z" fill="white"/>
</mask>
<g mask="url(#mask0_1919_31971)">
<rect width="32" height="32" fill="white"/>
</g>
</svg>
