<svg width="32" height="32" viewBox="0 0 32 32" fill="none" xmlns="http://www.w3.org/2000/svg">
<path fill-rule="evenodd" clip-rule="evenodd" d="M3.99942 7C3.99942 5.344 5.34342 4 6.99942 4C8.65542 4 9.99942 5.344 9.99942 7C9.99942 8.656 8.65542 10 6.99942 10C5.34342 10 3.99942 8.656 3.99942 7ZM20.2001 11.2005C15.8921 11.2005 12.3988 14.6725 12.3988 18.9525V26.7992C12.3988 27.4619 12.9374 28.0005 13.6001 28.0005H16.3988C17.0614 28.0005 17.6001 27.4619 17.6001 26.7992V18.9525C17.6001 17.4379 18.9121 16.2272 20.4694 16.3832C21.8214 16.5179 22.7988 17.7539 22.7988 19.1125V26.7992C22.7988 27.4619 23.3374 28.0005 24.0001 28.0005H26.7988C27.4614 28.0005 28.0001 27.4619 28.0001 26.7992V18.9525C28.0001 14.6725 24.5068 11.2005 20.2001 11.2005ZM8.79902 12.3997H5.20036C4.53769 12.3997 3.99902 12.9371 3.99902 13.5997V26.7997C3.99902 27.4624 4.53769 27.9997 5.20036 27.9997H8.79902C9.46169 27.9997 9.99902 27.4624 9.99902 26.7997V13.5997C9.99902 12.9371 9.46169 12.3997 8.79902 12.3997Z" fill="#03133D"/>
<mask id="mask0_1437_17760" style="mask-type:alpha" maskUnits="userSpaceOnUse" x="3" y="4" width="25" height="25">
<path fill-rule="evenodd" clip-rule="evenodd" d="M3.99942 7C3.99942 5.344 5.34342 4 6.99942 4C8.65542 4 9.99942 5.344 9.99942 7C9.99942 8.656 8.65542 10 6.99942 10C5.34342 10 3.99942 8.656 3.99942 7ZM20.2001 11.2005C15.8921 11.2005 12.3988 14.6725 12.3988 18.9525V26.7992C12.3988 27.4619 12.9374 28.0005 13.6001 28.0005H16.3988C17.0614 28.0005 17.6001 27.4619 17.6001 26.7992V18.9525C17.6001 17.4379 18.9121 16.2272 20.4694 16.3832C21.8214 16.5179 22.7988 17.7539 22.7988 19.1125V26.7992C22.7988 27.4619 23.3374 28.0005 24.0001 28.0005H26.7988C27.4614 28.0005 28.0001 27.4619 28.0001 26.7992V18.9525C28.0001 14.6725 24.5068 11.2005 20.2001 11.2005ZM8.79902 12.3997H5.20036C4.53769 12.3997 3.99902 12.9371 3.99902 13.5997V26.7997C3.99902 27.4624 4.53769 27.9997 5.20036 27.9997H8.79902C9.46169 27.9997 9.99902 27.4624 9.99902 26.7997V13.5997C9.99902 12.9371 9.46169 12.3997 8.79902 12.3997Z" fill="white"/>
</mask>
<g mask="url(#mask0_1437_17760)">
<rect width="32" height="32" fill="white"/>
</g>
</svg>
