<svg width="193" height="44" viewBox="0 0 193 44" fill="none" xmlns="http://www.w3.org/2000/svg">
<path fill-rule="evenodd" clip-rule="evenodd" d="M12 18C11.173 18 10.5 18.673 10.5 19.5C10.5 20.327 11.173 21 12 21C12.827 21 13.5 20.327 13.5 19.5C13.5 18.673 12.827 18 12 18ZM12 23C10.07 23 8.5 21.43 8.5 19.5C8.5 17.57 10.07 16 12 16C13.93 16 15.5 17.57 15.5 19.5C15.5 21.43 13.93 23 12 23ZM12 12C7.589 12 4 15.554 4 19.923C4 25.397 11.049 31.502 11.349 31.759C11.537 31.92 11.768 32 12 32C12.232 32 12.463 31.92 12.651 31.759C12.951 31.502 20 25.397 20 19.923C20 15.554 16.411 12 12 12Z" fill="#03133D"/>
<mask id="mask0_1435_15976" style="mask-type:alpha" maskUnits="userSpaceOnUse" x="4" y="12" width="16" height="20">
<path fill-rule="evenodd" clip-rule="evenodd" d="M12 18C11.173 18 10.5 18.673 10.5 19.5C10.5 20.327 11.173 21 12 21C12.827 21 13.5 20.327 13.5 19.5C13.5 18.673 12.827 18 12 18ZM12 23C10.07 23 8.5 21.43 8.5 19.5C8.5 17.57 10.07 16 12 16C13.93 16 15.5 17.57 15.5 19.5C15.5 21.43 13.93 23 12 23ZM12 12C7.589 12 4 15.554 4 19.923C4 25.397 11.049 31.502 11.349 31.759C11.537 31.92 11.768 32 12 32C12.232 32 12.463 31.92 12.651 31.759C12.951 31.502 20 25.397 20 19.923C20 15.554 16.411 12 12 12Z" fill="white"/>
</mask>
<g mask="url(#mask0_1435_15976)">
<rect y="10" width="24" height="24" fill="#14358A"/>
</g>
<path d="M33.184 16V4.8H34.752L38.784 12.608L42.784 4.8H44.368V16H43.024V7.2L39.28 14.4H38.272L34.528 7.216V16H33.184ZM47.4669 6.304C47.2002 6.304 46.9762 6.21867 46.7949 6.048C46.6242 5.86667 46.5389 5.64267 46.5389 5.376C46.5389 5.12 46.6242 4.90667 46.7949 4.736C46.9762 4.56533 47.2002 4.48 47.4669 4.48C47.7229 4.48 47.9415 4.56533 48.1229 4.736C48.3042 4.90667 48.3949 5.12 48.3949 5.376C48.3949 5.64267 48.3042 5.86667 48.1229 6.048C47.9415 6.21867 47.7229 6.304 47.4669 6.304ZM46.7949 16V8.064H48.1389V16H46.7949ZM54.079 16.192C53.2897 16.192 52.5963 16.0107 51.999 15.648C51.4123 15.2853 50.9537 14.7893 50.623 14.16C50.303 13.5307 50.143 12.816 50.143 12.016C50.143 11.216 50.3083 10.5067 50.639 9.888C50.9697 9.25867 51.4283 8.768 52.015 8.416C52.6017 8.05333 53.295 7.872 54.095 7.872C54.7457 7.872 55.3217 8.00533 55.823 8.272C56.3243 8.53867 56.7137 8.912 56.991 9.392V4.48H58.335V16H57.119L56.991 14.688C56.735 15.072 56.367 15.4187 55.887 15.728C55.407 16.0373 54.8043 16.192 54.079 16.192ZM54.223 15.024C54.7563 15.024 55.2257 14.9013 55.631 14.656C56.047 14.4 56.367 14.048 56.591 13.6C56.8257 13.152 56.943 12.6293 56.943 12.032C56.943 11.4347 56.8257 10.912 56.591 10.464C56.367 10.016 56.047 9.66933 55.631 9.424C55.2257 9.168 54.7563 9.04 54.223 9.04C53.7003 9.04 53.231 9.168 52.815 9.424C52.4097 9.66933 52.0897 10.016 51.855 10.464C51.631 10.912 51.519 11.4347 51.519 12.032C51.519 12.6293 51.631 13.152 51.855 13.6C52.0897 14.048 52.4097 14.4 52.815 14.656C53.231 14.9013 53.7003 15.024 54.223 15.024ZM64.1259 16.192C63.3365 16.192 62.6432 16.0107 62.0459 15.648C61.4592 15.2853 61.0005 14.7893 60.6699 14.16C60.3499 13.5307 60.1899 12.816 60.1899 12.016C60.1899 11.216 60.3552 10.5067 60.6859 9.888C61.0165 9.25867 61.4752 8.768 62.0619 8.416C62.6485 8.05333 63.3419 7.872 64.1419 7.872C64.7925 7.872 65.3685 8.00533 65.8699 8.272C66.3712 8.53867 66.7605 8.912 67.0379 9.392V4.48H68.3819V16H67.1659L67.0379 14.688C66.7819 15.072 66.4139 15.4187 65.9339 15.728C65.4539 16.0373 64.8512 16.192 64.1259 16.192ZM64.2699 15.024C64.8032 15.024 65.2725 14.9013 65.6779 14.656C66.0939 14.4 66.4139 14.048 66.6379 13.6C66.8725 13.152 66.9899 12.6293 66.9899 12.032C66.9899 11.4347 66.8725 10.912 66.6379 10.464C66.4139 10.016 66.0939 9.66933 65.6779 9.424C65.2725 9.168 64.8032 9.04 64.2699 9.04C63.7472 9.04 63.2779 9.168 62.8619 9.424C62.4565 9.66933 62.1365 10.016 61.9019 10.464C61.6779 10.912 61.5659 11.4347 61.5659 12.032C61.5659 12.6293 61.6779 13.152 61.9019 13.6C62.1365 14.048 62.4565 14.4 62.8619 14.656C63.2779 14.9013 63.7472 15.024 64.2699 15.024ZM70.5728 16V4.48H71.9168V16H70.5728ZM77.6876 16.192C76.9303 16.192 76.2583 16.0213 75.6716 15.68C75.085 15.328 74.621 14.8427 74.2796 14.224C73.949 13.6053 73.7836 12.8747 73.7836 12.032C73.7836 11.2 73.949 10.4747 74.2796 9.856C74.6103 9.22667 75.069 8.74133 75.6556 8.4C76.253 8.048 76.941 7.872 77.7196 7.872C78.4876 7.872 79.149 8.048 79.7036 8.4C80.269 8.74133 80.701 9.19467 80.9996 9.76C81.2983 10.3253 81.4476 10.9333 81.4476 11.584C81.4476 11.7013 81.4423 11.8187 81.4316 11.936C81.4316 12.0533 81.4316 12.1867 81.4316 12.336H75.1116C75.1436 12.944 75.2823 13.4507 75.5276 13.856C75.7836 14.2507 76.0983 14.5493 76.4716 14.752C76.8556 14.9547 77.261 15.056 77.6876 15.056C78.2423 15.056 78.7063 14.928 79.0796 14.672C79.453 14.416 79.725 14.0693 79.8956 13.632H81.2236C81.0103 14.368 80.5996 14.9813 79.9916 15.472C79.3943 15.952 78.6263 16.192 77.6876 16.192ZM77.6876 9.008C77.0476 9.008 76.477 9.20533 75.9756 9.6C75.485 9.984 75.2023 10.5493 75.1276 11.296H80.1196C80.0876 10.5813 79.8423 10.0213 79.3836 9.616C78.925 9.21067 78.3596 9.008 77.6876 9.008ZM91.1114 16.192C90.29 16.192 89.5754 16.0427 88.9674 15.744C88.3594 15.4453 87.89 15.0293 87.5594 14.496C87.2287 13.9627 87.0634 13.344 87.0634 12.64H88.4714C88.4714 13.0773 88.5727 13.4827 88.7754 13.856C88.978 14.2187 89.2714 14.512 89.6554 14.736C90.05 14.9493 90.5354 15.056 91.1114 15.056C91.8687 15.056 92.4554 14.8747 92.8714 14.512C93.2874 14.1493 93.4954 13.696 93.4954 13.152C93.4954 12.704 93.3994 12.3467 93.2074 12.08C93.0154 11.8027 92.754 11.5787 92.4234 11.408C92.1034 11.2373 91.73 11.088 91.3034 10.96C90.8874 10.832 90.45 10.688 89.9914 10.528C89.1274 10.2293 88.4874 9.86133 88.0714 9.424C87.6554 8.976 87.4474 8.39467 87.4474 7.68C87.4367 7.08267 87.5754 6.55467 87.8634 6.096C88.1514 5.62667 88.5567 5.264 89.0794 5.008C89.6127 4.74133 90.242 4.608 90.9674 4.608C91.682 4.608 92.3007 4.74133 92.8234 5.008C93.3567 5.27467 93.7674 5.64267 94.0554 6.112C94.354 6.58133 94.5087 7.11467 94.5194 7.712H93.1114C93.1114 7.40267 93.0314 7.09867 92.8714 6.8C92.7114 6.49067 92.466 6.24 92.1354 6.048C91.8154 5.856 91.41 5.76 90.9194 5.76C90.3114 5.74933 89.81 5.904 89.4154 6.224C89.0314 6.544 88.8394 6.98667 88.8394 7.552C88.8394 8.032 88.9727 8.4 89.2394 8.656C89.5167 8.912 89.9007 9.12533 90.3914 9.296C90.882 9.456 91.4474 9.64267 92.0874 9.856C92.6207 10.048 93.1007 10.272 93.5274 10.528C93.954 10.784 94.2847 11.1147 94.5194 11.52C94.7647 11.9253 94.8874 12.4427 94.8874 13.072C94.8874 13.6053 94.7487 14.112 94.4714 14.592C94.194 15.0613 93.7727 15.4453 93.2074 15.744C92.6527 16.0427 91.954 16.192 91.1114 16.192ZM99.3534 16.192C98.692 16.192 98.1427 16.08 97.7054 15.856C97.268 15.632 96.9427 15.3333 96.7294 14.96C96.516 14.5867 96.4094 14.1813 96.4094 13.744C96.4094 12.9333 96.7187 12.3093 97.3374 11.872C97.956 11.4347 98.7987 11.216 99.8654 11.216H102.009V11.12C102.009 10.4267 101.828 9.904 101.465 9.552C101.103 9.18933 100.617 9.008 100.009 9.008C99.4867 9.008 99.0334 9.14133 98.6494 9.408C98.276 9.664 98.0414 10.0427 97.9454 10.544H96.5694C96.6227 9.968 96.8147 9.48267 97.1454 9.088C97.4867 8.69333 97.908 8.39467 98.4094 8.192C98.9107 7.97867 99.444 7.872 100.009 7.872C101.119 7.872 101.951 8.17067 102.505 8.768C103.071 9.35467 103.353 10.1387 103.353 11.12V16H102.153L102.073 14.576C101.849 15.024 101.519 15.408 101.081 15.728C100.655 16.0373 100.079 16.192 99.3534 16.192ZM99.5614 15.056C100.073 15.056 100.511 14.9227 100.873 14.656C101.247 14.3893 101.529 14.0427 101.721 13.616C101.913 13.1893 102.009 12.7413 102.009 12.272V12.256H99.9774C99.188 12.256 98.628 12.3947 98.2974 12.672C97.9774 12.9387 97.8174 13.2747 97.8174 13.68C97.8174 14.096 97.9667 14.432 98.2654 14.688C98.5747 14.9333 99.0067 15.056 99.5614 15.056ZM105.37 16V8.064H106.586L106.666 9.488C106.922 8.98667 107.29 8.592 107.77 8.304C108.25 8.016 108.794 7.872 109.402 7.872C110.34 7.872 111.087 8.16 111.642 8.736C112.207 9.30133 112.49 10.176 112.49 11.36V16H111.146V11.504C111.146 9.85067 110.463 9.024 109.098 9.024C108.415 9.024 107.844 9.27467 107.386 9.776C106.938 10.2667 106.714 10.9707 106.714 11.888V16H105.37ZM118.84 16V4.8H125.656V5.904H120.184V9.84H124.84V10.928H120.184V16H118.84ZM127.307 16V8.064H128.523L128.635 9.584C128.88 9.06133 129.254 8.64533 129.755 8.336C130.256 8.02667 130.875 7.872 131.611 7.872V9.28H131.243C130.774 9.28 130.342 9.36533 129.947 9.536C129.552 9.696 129.238 9.97333 129.003 10.368C128.768 10.7627 128.651 11.3067 128.651 12V16H127.307ZM135.76 16.192C135.098 16.192 134.549 16.08 134.112 15.856C133.674 15.632 133.349 15.3333 133.136 14.96C132.922 14.5867 132.816 14.1813 132.816 13.744C132.816 12.9333 133.125 12.3093 133.744 11.872C134.362 11.4347 135.205 11.216 136.272 11.216H138.416V11.12C138.416 10.4267 138.234 9.904 137.872 9.552C137.509 9.18933 137.024 9.008 136.416 9.008C135.893 9.008 135.44 9.14133 135.056 9.408C134.682 9.664 134.448 10.0427 134.352 10.544H132.976C133.029 9.968 133.221 9.48267 133.552 9.088C133.893 8.69333 134.314 8.39467 134.816 8.192C135.317 7.97867 135.85 7.872 136.416 7.872C137.525 7.872 138.357 8.17067 138.912 8.768C139.477 9.35467 139.76 10.1387 139.76 11.12V16H138.56L138.48 14.576C138.256 15.024 137.925 15.408 137.488 15.728C137.061 16.0373 136.485 16.192 135.76 16.192ZM135.968 15.056C136.48 15.056 136.917 14.9227 137.28 14.656C137.653 14.3893 137.936 14.0427 138.128 13.616C138.32 13.1893 138.416 12.7413 138.416 12.272V12.256H136.384C135.594 12.256 135.034 12.3947 134.704 12.672C134.384 12.9387 134.224 13.2747 134.224 13.68C134.224 14.096 134.373 14.432 134.672 14.688C134.981 14.9333 135.413 15.056 135.968 15.056ZM141.776 16V8.064H142.992L143.072 9.488C143.328 8.98667 143.696 8.592 144.176 8.304C144.656 8.016 145.2 7.872 145.808 7.872C146.747 7.872 147.493 8.16 148.048 8.736C148.613 9.30133 148.896 10.176 148.896 11.36V16H147.552V11.504C147.552 9.85067 146.869 9.024 145.504 9.024C144.821 9.024 144.251 9.27467 143.792 9.776C143.344 10.2667 143.12 10.9707 143.12 11.888V16H141.776ZM154.58 16.192C153.823 16.192 153.14 16.0213 152.532 15.68C151.935 15.328 151.46 14.8427 151.108 14.224C150.767 13.5947 150.596 12.864 150.596 12.032C150.596 11.2 150.767 10.4747 151.108 9.856C151.46 9.22667 151.935 8.74133 152.532 8.4C153.14 8.048 153.823 7.872 154.58 7.872C155.519 7.872 156.308 8.11733 156.948 8.608C157.599 9.09867 158.009 9.75467 158.18 10.576H156.804C156.697 10.0853 156.436 9.70667 156.02 9.44C155.604 9.16267 155.119 9.024 154.564 9.024C154.116 9.024 153.695 9.136 153.3 9.36C152.905 9.584 152.585 9.92 152.34 10.368C152.095 10.816 151.972 11.3707 151.972 12.032C151.972 12.6933 152.095 13.248 152.34 13.696C152.585 14.144 152.905 14.4853 153.3 14.72C153.695 14.944 154.116 15.056 154.564 15.056C155.119 15.056 155.604 14.9227 156.02 14.656C156.436 14.3787 156.697 13.9893 156.804 13.488H158.18C158.02 14.288 157.615 14.9387 156.964 15.44C156.313 15.9413 155.519 16.192 154.58 16.192ZM160.873 6.304C160.606 6.304 160.382 6.21867 160.201 6.048C160.03 5.86667 159.945 5.64267 159.945 5.376C159.945 5.12 160.03 4.90667 160.201 4.736C160.382 4.56533 160.606 4.48 160.873 4.48C161.129 4.48 161.348 4.56533 161.529 4.736C161.71 4.90667 161.801 5.12 161.801 5.376C161.801 5.64267 161.71 5.86667 161.529 6.048C161.348 6.21867 161.129 6.304 160.873 6.304ZM160.201 16V8.064H161.545V16H160.201ZM166.925 16.192C165.976 16.192 165.187 15.952 164.557 15.472C163.928 14.992 163.56 14.3413 163.453 13.52H164.829C164.915 13.936 165.133 14.2987 165.485 14.608C165.848 14.9067 166.333 15.056 166.941 15.056C167.507 15.056 167.923 14.9387 168.189 14.704C168.456 14.4587 168.589 14.1707 168.589 13.84C168.589 13.36 168.413 13.04 168.061 12.88C167.72 12.72 167.235 12.576 166.605 12.448C166.179 12.3627 165.752 12.24 165.325 12.08C164.899 11.92 164.541 11.696 164.253 11.408C163.965 11.1093 163.821 10.72 163.821 10.24C163.821 9.54667 164.077 8.98133 164.589 8.544C165.112 8.096 165.816 7.872 166.701 7.872C167.544 7.872 168.232 8.08533 168.765 8.512C169.309 8.928 169.624 9.52533 169.709 10.304H168.381C168.328 9.89867 168.152 9.584 167.853 9.36C167.565 9.12533 167.176 9.008 166.685 9.008C166.205 9.008 165.832 9.10933 165.565 9.312C165.309 9.51467 165.181 9.78133 165.181 10.112C165.181 10.432 165.347 10.6827 165.677 10.864C166.019 11.0453 166.477 11.2 167.053 11.328C167.544 11.4347 168.008 11.568 168.445 11.728C168.893 11.8773 169.256 12.1067 169.533 12.416C169.821 12.7147 169.965 13.152 169.965 13.728C169.976 14.4427 169.704 15.0347 169.149 15.504C168.605 15.9627 167.864 16.192 166.925 16.192ZM175.533 16.192C174.776 16.192 174.093 16.0213 173.485 15.68C172.888 15.328 172.413 14.8427 172.061 14.224C171.72 13.5947 171.549 12.864 171.549 12.032C171.549 11.2 171.72 10.4747 172.061 9.856C172.413 9.22667 172.888 8.74133 173.485 8.4C174.093 8.048 174.776 7.872 175.533 7.872C176.472 7.872 177.261 8.11733 177.901 8.608C178.552 9.09867 178.963 9.75467 179.133 10.576H177.757C177.651 10.0853 177.389 9.70667 176.973 9.44C176.557 9.16267 176.072 9.024 175.517 9.024C175.069 9.024 174.648 9.136 174.253 9.36C173.859 9.584 173.539 9.92 173.293 10.368C173.048 10.816 172.925 11.3707 172.925 12.032C172.925 12.6933 173.048 13.248 173.293 13.696C173.539 14.144 173.859 14.4853 174.253 14.72C174.648 14.944 175.069 15.056 175.517 15.056C176.072 15.056 176.557 14.9227 176.973 14.656C177.389 14.3787 177.651 13.9893 177.757 13.488H179.133C178.973 14.288 178.568 14.9387 177.917 15.44C177.267 15.9413 176.472 16.192 175.533 16.192ZM184.626 16.192C183.88 16.192 183.208 16.0213 182.61 15.68C182.013 15.3387 181.538 14.8587 181.186 14.24C180.845 13.6107 180.674 12.8747 180.674 12.032C180.674 11.1893 180.85 10.4587 181.202 9.84C181.554 9.21067 182.029 8.72533 182.626 8.384C183.234 8.04267 183.912 7.872 184.658 7.872C185.405 7.872 186.077 8.04267 186.674 8.384C187.272 8.72533 187.741 9.21067 188.082 9.84C188.434 10.4587 188.61 11.1893 188.61 12.032C188.61 12.8747 188.434 13.6107 188.082 14.24C187.73 14.8587 187.25 15.3387 186.642 15.68C186.045 16.0213 185.373 16.192 184.626 16.192ZM184.626 15.04C185.085 15.04 185.512 14.928 185.906 14.704C186.301 14.48 186.621 14.144 186.866 13.696C187.112 13.248 187.234 12.6933 187.234 12.032C187.234 11.3707 187.112 10.816 186.866 10.368C186.632 9.92 186.317 9.584 185.922 9.36C185.528 9.136 185.106 9.024 184.658 9.024C184.2 9.024 183.773 9.136 183.378 9.36C182.984 9.584 182.664 9.92 182.418 10.368C182.173 10.816 182.05 11.3707 182.05 12.032C182.05 12.6933 182.173 13.248 182.418 13.696C182.664 14.144 182.978 14.48 183.362 14.704C183.757 14.928 184.178 15.04 184.626 15.04ZM189.407 17.904L190.335 14.368H191.727L190.335 17.904H189.407ZM38.096 38.192C36.9973 38.192 36.048 37.952 35.248 37.472C34.4587 36.9813 33.8453 36.304 33.408 35.44C32.9707 34.5653 32.752 33.552 32.752 32.4C32.752 31.2587 32.9707 30.256 33.408 29.392C33.8453 28.5173 34.4587 27.8347 35.248 27.344C36.048 26.8533 36.9973 26.608 38.096 26.608C39.376 26.608 40.416 26.9173 41.216 27.536C42.0267 28.144 42.544 28.9973 42.768 30.096H41.28C41.1093 29.4027 40.7573 28.848 40.224 28.432C39.7013 28.0053 38.992 27.792 38.096 27.792C37.296 27.792 36.5973 27.9787 36 28.352C35.4027 28.7147 34.9387 29.2427 34.608 29.936C34.288 30.6187 34.128 31.44 34.128 32.4C34.128 33.36 34.288 34.1867 34.608 34.88C34.9387 35.5627 35.4027 36.0907 36 36.464C36.5973 36.8267 37.296 37.008 38.096 37.008C38.992 37.008 39.7013 36.8053 40.224 36.4C40.7573 35.984 41.1093 35.4347 41.28 34.752H42.768C42.544 35.8293 42.0267 36.672 41.216 37.28C40.416 37.888 39.376 38.192 38.096 38.192ZM47.2596 38.192C46.5983 38.192 46.049 38.08 45.6116 37.856C45.1743 37.632 44.849 37.3333 44.6356 36.96C44.4223 36.5867 44.3156 36.1813 44.3156 35.744C44.3156 34.9333 44.625 34.3093 45.2436 33.872C45.8623 33.4347 46.705 33.216 47.7716 33.216H49.9156V33.12C49.9156 32.4267 49.7343 31.904 49.3716 31.552C49.009 31.1893 48.5236 31.008 47.9156 31.008C47.393 31.008 46.9396 31.1413 46.5556 31.408C46.1823 31.664 45.9476 32.0427 45.8516 32.544H44.4756C44.529 31.968 44.721 31.4827 45.0516 31.088C45.393 30.6933 45.8143 30.3947 46.3156 30.192C46.817 29.9787 47.3503 29.872 47.9156 29.872C49.025 29.872 49.857 30.1707 50.4116 30.768C50.977 31.3547 51.2596 32.1387 51.2596 33.12V38H50.0596L49.9796 36.576C49.7556 37.024 49.425 37.408 48.9876 37.728C48.561 38.0373 47.985 38.192 47.2596 38.192ZM47.4676 37.056C47.9796 37.056 48.417 36.9227 48.7796 36.656C49.153 36.3893 49.4356 36.0427 49.6276 35.616C49.8196 35.1893 49.9156 34.7413 49.9156 34.272V34.256H47.8836C47.0943 34.256 46.5343 34.3947 46.2036 34.672C45.8836 34.9387 45.7236 35.2747 45.7236 35.68C45.7236 36.096 45.873 36.432 46.1716 36.688C46.481 36.9333 46.913 37.056 47.4676 37.056ZM53.2759 38V26.48H54.6199V38H53.2759ZM57.6388 28.304C57.3721 28.304 57.1481 28.2187 56.9668 28.048C56.7961 27.8667 56.7108 27.6427 56.7108 27.376C56.7108 27.12 56.7961 26.9067 56.9668 26.736C57.1481 26.5653 57.3721 26.48 57.6388 26.48C57.8948 26.48 58.1134 26.5653 58.2948 26.736C58.4761 26.9067 58.5668 27.12 58.5668 27.376C58.5668 27.6427 58.4761 27.8667 58.2948 28.048C58.1134 28.2187 57.8948 28.304 57.6388 28.304ZM56.9668 38V30.064H58.3108V38H56.9668ZM61.0829 38V31.2H59.8829V30.064H61.0829V28.688C61.0829 27.92 61.2749 27.36 61.6589 27.008C62.0429 26.656 62.6029 26.48 63.3389 26.48H64.1389V27.632H63.5469C63.1415 27.632 62.8535 27.7173 62.6829 27.888C62.5122 28.048 62.4269 28.3253 62.4269 28.72V30.064H64.3789V31.2H62.4269V38H61.0829ZM69.2825 38.192C68.5358 38.192 67.8638 38.0213 67.2665 37.68C66.6692 37.3387 66.1945 36.8587 65.8425 36.24C65.5012 35.6107 65.3305 34.8747 65.3305 34.032C65.3305 33.1893 65.5065 32.4587 65.8585 31.84C66.2105 31.2107 66.6852 30.7253 67.2825 30.384C67.8905 30.0427 68.5678 29.872 69.3145 29.872C70.0612 29.872 70.7332 30.0427 71.3305 30.384C71.9278 30.7253 72.3972 31.2107 72.7385 31.84C73.0905 32.4587 73.2665 33.1893 73.2665 34.032C73.2665 34.8747 73.0905 35.6107 72.7385 36.24C72.3865 36.8587 71.9065 37.3387 71.2985 37.68C70.7012 38.0213 70.0292 38.192 69.2825 38.192ZM69.2825 37.04C69.7412 37.04 70.1678 36.928 70.5625 36.704C70.9572 36.48 71.2772 36.144 71.5225 35.696C71.7678 35.248 71.8905 34.6933 71.8905 34.032C71.8905 33.3707 71.7678 32.816 71.5225 32.368C71.2878 31.92 70.9732 31.584 70.5785 31.36C70.1838 31.136 69.7625 31.024 69.3145 31.024C68.8558 31.024 68.4292 31.136 68.0345 31.36C67.6398 31.584 67.3198 31.92 67.0745 32.368C66.8292 32.816 66.7065 33.3707 66.7065 34.032C66.7065 34.6933 66.8292 35.248 67.0745 35.696C67.3198 36.144 67.6345 36.48 68.0185 36.704C68.4132 36.928 68.8345 37.04 69.2825 37.04ZM75.1353 38V30.064H76.3513L76.4633 31.584C76.7086 31.0613 77.0819 30.6453 77.5833 30.336C78.0846 30.0267 78.7033 29.872 79.4393 29.872V31.28H79.0713C78.6019 31.28 78.1699 31.3653 77.7753 31.536C77.3806 31.696 77.0659 31.9733 76.8313 32.368C76.5966 32.7627 76.4793 33.3067 76.4793 34V38H75.1353ZM80.9478 38V30.064H82.1638L82.2438 31.488C82.4998 30.9867 82.8678 30.592 83.3478 30.304C83.8278 30.016 84.3718 29.872 84.9798 29.872C85.9184 29.872 86.6651 30.16 87.2198 30.736C87.7851 31.3013 88.0677 32.176 88.0677 33.36V38H86.7238V33.504C86.7238 31.8507 86.0411 31.024 84.6758 31.024C83.9931 31.024 83.4224 31.2747 82.9638 31.776C82.5158 32.2667 82.2918 32.9707 82.2918 33.888V38H80.9478ZM90.92 28.304C90.6533 28.304 90.4293 28.2187 90.248 28.048C90.0773 27.8667 89.992 27.6427 89.992 27.376C89.992 27.12 90.0773 26.9067 90.248 26.736C90.4293 26.5653 90.6533 26.48 90.92 26.48C91.176 26.48 91.3947 26.5653 91.576 26.736C91.7573 26.9067 91.848 27.12 91.848 27.376C91.848 27.6427 91.7573 27.8667 91.576 28.048C91.3947 28.2187 91.176 28.304 90.92 28.304ZM90.248 38V30.064H91.592V38H90.248ZM96.5721 38.192C95.9108 38.192 95.3615 38.08 94.9241 37.856C94.4868 37.632 94.1615 37.3333 93.9481 36.96C93.7348 36.5867 93.6281 36.1813 93.6281 35.744C93.6281 34.9333 93.9375 34.3093 94.5561 33.872C95.1748 33.4347 96.0175 33.216 97.0841 33.216H99.2281V33.12C99.2281 32.4267 99.0468 31.904 98.6841 31.552C98.3215 31.1893 97.8361 31.008 97.2281 31.008C96.7055 31.008 96.2521 31.1413 95.8681 31.408C95.4948 31.664 95.2601 32.0427 95.1641 32.544H93.7881C93.8415 31.968 94.0335 31.4827 94.3641 31.088C94.7055 30.6933 95.1268 30.3947 95.6281 30.192C96.1295 29.9787 96.6628 29.872 97.2281 29.872C98.3375 29.872 99.1695 30.1707 99.7241 30.768C100.289 31.3547 100.572 32.1387 100.572 33.12V38H99.3721L99.2921 36.576C99.0681 37.024 98.7375 37.408 98.3001 37.728C97.8735 38.0373 97.2975 38.192 96.5721 38.192ZM96.7801 37.056C97.2921 37.056 97.7295 36.9227 98.0921 36.656C98.4655 36.3893 98.7481 36.0427 98.9401 35.616C99.1321 35.1893 99.2281 34.7413 99.2281 34.272V34.256H97.1961C96.4068 34.256 95.8468 34.3947 95.5161 34.672C95.1961 34.9387 95.0361 35.2747 95.0361 35.68C95.0361 36.096 95.1855 36.432 95.4841 36.688C95.7935 36.9333 96.2255 37.056 96.7801 37.056ZM101.516 39.904L102.444 36.368H103.836L102.444 39.904H101.516ZM113.443 38.192C112.739 38.192 112.136 38.0533 111.635 37.776C111.133 37.4987 110.733 37.1307 110.435 36.672C110.147 36.2027 109.971 35.6853 109.907 35.12H111.155C111.261 35.728 111.517 36.1973 111.923 36.528C112.328 36.8587 112.84 37.024 113.459 37.024C114.312 37.024 115.021 36.6293 115.587 35.84C116.152 35.04 116.456 33.7973 116.499 32.112C116.243 32.6133 115.832 33.0507 115.267 33.424C114.712 33.7867 114.04 33.968 113.251 33.968C112.621 33.968 112.024 33.8187 111.459 33.52C110.893 33.2213 110.435 32.8053 110.083 32.272C109.731 31.728 109.555 31.0933 109.555 30.368C109.555 29.7387 109.709 29.136 110.019 28.56C110.339 27.984 110.787 27.5147 111.363 27.152C111.939 26.7893 112.627 26.608 113.427 26.608C114.237 26.608 114.92 26.7627 115.475 27.072C116.029 27.3707 116.472 27.776 116.803 28.288C117.144 28.8 117.389 29.376 117.539 30.016C117.699 30.6453 117.779 31.2907 117.779 31.952C117.779 33.1893 117.608 34.2773 117.267 35.216C116.925 36.144 116.429 36.8747 115.779 37.408C115.139 37.9307 114.36 38.192 113.443 38.192ZM113.523 32.8C114.024 32.8 114.472 32.688 114.867 32.464C115.261 32.2293 115.576 31.92 115.811 31.536C116.045 31.152 116.163 30.736 116.163 30.288C116.163 29.808 116.045 29.3813 115.811 29.008C115.576 28.624 115.261 28.3253 114.867 28.112C114.472 27.8987 114.024 27.792 113.523 27.792C113.021 27.792 112.573 27.8987 112.179 28.112C111.784 28.3253 111.475 28.624 111.251 29.008C111.027 29.3813 110.914 29.8133 110.914 30.304C110.914 31.0613 111.16 31.6693 111.651 32.128C112.152 32.576 112.776 32.8 113.523 32.8ZM124.897 38V35.6H119.217V34.56L124.657 26.8H126.225V34.416H127.889V35.6H126.225V38H124.897ZM120.705 34.416H124.961V28.288L120.705 34.416ZM129.336 38V37.056C130.093 36.4587 130.808 35.856 131.48 35.248C132.163 34.6293 132.765 34.0213 133.288 33.424C133.821 32.8267 134.237 32.24 134.536 31.664C134.845 31.088 135 30.5333 135 30C135 29.6053 134.931 29.2373 134.792 28.896C134.664 28.5547 134.451 28.2827 134.152 28.08C133.853 27.8667 133.448 27.76 132.936 27.76C132.445 27.76 132.035 27.872 131.704 28.096C131.373 28.3093 131.123 28.5973 130.952 28.96C130.792 29.3227 130.712 29.712 130.712 30.128H129.416C129.416 29.392 129.571 28.7627 129.88 28.24C130.189 27.7067 130.611 27.3013 131.144 27.024C131.677 26.7467 132.28 26.608 132.952 26.608C133.944 26.608 134.755 26.8907 135.384 27.456C136.024 28.0107 136.344 28.8427 136.344 29.952C136.344 30.6133 136.179 31.2693 135.848 31.92C135.517 32.56 135.096 33.184 134.584 33.792C134.072 34.3893 133.523 34.9493 132.936 35.472C132.36 35.9947 131.821 36.464 131.32 36.88H136.728V38H129.336ZM139.772 38V28.304L137.964 28.704V27.776L140.22 26.8H141.132V38H139.772ZM144.601 38V28.304L142.793 28.704V27.776L145.049 26.8H145.961V38H144.601ZM148.149 38V37.056C148.906 36.4587 149.621 35.856 150.293 35.248C150.975 34.6293 151.578 34.0213 152.101 33.424C152.634 32.8267 153.05 32.24 153.349 31.664C153.658 31.088 153.813 30.5333 153.813 30C153.813 29.6053 153.743 29.2373 153.605 28.896C153.477 28.5547 153.263 28.2827 152.965 28.08C152.666 27.8667 152.261 27.76 151.749 27.76C151.258 27.76 150.847 27.872 150.517 28.096C150.186 28.3093 149.935 28.5973 149.765 28.96C149.605 29.3227 149.525 29.712 149.525 30.128H148.229C148.229 29.392 148.383 28.7627 148.693 28.24C149.002 27.7067 149.423 27.3013 149.957 27.024C150.49 26.7467 151.093 26.608 151.765 26.608C152.757 26.608 153.567 26.8907 154.197 27.456C154.837 28.0107 155.157 28.8427 155.157 29.952C155.157 30.6133 154.991 31.2693 154.661 31.92C154.33 32.56 153.909 33.184 153.397 33.792C152.885 34.3893 152.335 34.9493 151.749 35.472C151.173 35.9947 150.634 36.464 150.133 36.88H155.541V38H148.149Z" fill="#03133D"/>
</svg>
