<svg width="32" height="32" viewBox="0 0 32 32" fill="none" xmlns="http://www.w3.org/2000/svg">
<path fill-rule="evenodd" clip-rule="evenodd" d="M27.7626 18.7433C27.0653 18.4953 26.3053 18.8593 26.0613 19.5553C24.5573 23.8087 20.5133 26.666 16.0013 26.666C10.12 26.666 5.33464 21.882 5.33464 15.9993C5.33464 11.4873 8.19197 7.44333 12.4453 5.93933C13.14 5.69533 13.504 4.934 13.2586 4.23933C13.0133 3.546 12.252 3.18066 11.5573 3.42733C6.23997 5.306 2.66797 10.358 2.66797 15.9993C2.66797 23.3513 8.6493 29.3327 16.0013 29.3327C21.6426 29.3327 26.6946 25.762 28.5746 20.4433C28.82 19.75 28.4573 18.9887 27.7626 18.7433ZM18.6676 13.3331V5.42782C22.749 6.01448 25.9863 9.25048 26.573 13.3331H18.6676ZM17.3342 2.6665C16.5982 2.6665 16.0009 3.2625 16.0009 3.99984V14.6665C16.0009 15.4038 16.5982 15.9998 17.3342 15.9998H28.0009C28.7369 15.9998 29.3342 15.4038 29.3342 14.6665C29.3342 8.04917 23.9502 2.6665 17.3342 2.6665Z" fill="#03133D"/>
<mask id="mask0_1919_31973" style="mask-type:alpha" maskUnits="userSpaceOnUse" x="2" y="2" width="28" height="28">
<path fill-rule="evenodd" clip-rule="evenodd" d="M27.7626 18.7433C27.0653 18.4953 26.3053 18.8593 26.0613 19.5553C24.5573 23.8087 20.5133 26.666 16.0013 26.666C10.12 26.666 5.33464 21.882 5.33464 15.9993C5.33464 11.4873 8.19197 7.44333 12.4453 5.93933C13.14 5.69533 13.504 4.934 13.2586 4.23933C13.0133 3.546 12.252 3.18066 11.5573 3.42733C6.23997 5.306 2.66797 10.358 2.66797 15.9993C2.66797 23.3513 8.6493 29.3327 16.0013 29.3327C21.6426 29.3327 26.6946 25.762 28.5746 20.4433C28.82 19.75 28.4573 18.9887 27.7626 18.7433ZM18.6676 13.3331V5.42782C22.749 6.01448 25.9863 9.25048 26.573 13.3331H18.6676ZM17.3342 2.6665C16.5982 2.6665 16.0009 3.2625 16.0009 3.99984V14.6665C16.0009 15.4038 16.5982 15.9998 17.3342 15.9998H28.0009C28.7369 15.9998 29.3342 15.4038 29.3342 14.6665C29.3342 8.04917 23.9502 2.6665 17.3342 2.6665Z" fill="white"/>
</mask>
<g mask="url(#mask0_1919_31973)">
<rect width="32" height="32" fill="white"/>
</g>
</svg>
