<svg width="40" height="40" viewBox="0 0 40 40" fill="none" xmlns="http://www.w3.org/2000/svg">
<path d="M40 12.9688C40 12.7263 39.9194 12.4685 39.7619 12.2606L32.6525 2.88563C32.4327 2.59617 32.0813 2.42188 31.7188 2.42188H8.28125C7.92297 2.42188 7.5693 2.59313 7.3475 2.88563L0.238125 12.2606C0.0807813 12.4684 0 12.7189 0 12.9688C0 13.2379 0.0971094 13.502 0.258281 13.7027L19.0864 37.1402C19.3134 37.4218 19.6543 37.5781 20 37.5781C20.3495 37.5781 20.6897 37.418 20.9136 37.1402L39.7418 13.7027C39.9033 13.5017 40 13.236 40 12.9688ZM8.07602 5.80375L11.0726 11.7969H3.53125L8.07602 5.80375ZM25.4562 14.1406L20 32.328L14.5438 14.1406H25.4562ZM15.3125 11.7969L20 5.54688L24.6875 11.7969H15.3125ZM22.3438 4.76562H29.8227L26.8311 10.7487L22.3438 4.76562ZM13.1689 10.7487L10.1774 4.76562H17.6562L13.1689 10.7487ZM12.0969 14.1406L17.1514 30.9891L3.61648 14.1406H12.0969ZM27.9032 14.1406H36.3836L22.8487 30.9891L27.9032 14.1406ZM28.9274 11.7969L31.924 5.80375L36.4688 11.7969H28.9274Z" fill="#006FBA"/>
</svg>
