<svg width="40" height="40" viewBox="0 0 40 40" fill="none" xmlns="http://www.w3.org/2000/svg">
<path d="M39.9997 19.9965C39.9986 19.676 39.8624 19.3771 39.6564 19.1711L20.8289 0.343671C20.6157 0.130312 20.3187 0 20 0C19.6937 0 19.3935 0.120937 19.171 0.343671L0.343437 19.1712C0.126953 19.3876 0 19.6922 0 20C0 20.3002 0.121406 20.607 0.343437 20.8289L19.1709 39.6563C19.3961 39.8817 19.7049 40 19.9999 40C20.2965 40 20.6042 39.8812 20.8289 39.6563L39.6564 20.8289C39.8744 20.611 39.9997 20.3133 39.9997 19.9965ZM20 27.1489L12.8511 20L20 12.851L27.1488 20L20 27.1489ZM18.8281 10.7084L10.7083 18.8282H4.00101L18.8281 4.00101V10.7084ZM10.7083 21.1719L18.8281 29.2917V35.999L4.00101 21.1719H10.7083ZM21.1718 29.2917L29.2916 21.1719H35.9989L21.1718 35.999V29.2917ZM29.2915 18.8282L21.1718 10.7084V4.00101L35.9989 18.8281H29.2915V18.8282Z" fill="#006FBA"/>
</svg>
