<svg width="40" height="40" viewBox="0 0 40 40" fill="none" xmlns="http://www.w3.org/2000/svg">
<path d="M20.0003 0L2.67969 10V29.9999L20.0003 39.9999L37.3209 29.9999V10L20.0003 0ZM21.1722 3.38305L33.8051 10.6766L29.114 13.3849L21.1722 8.79978V3.38305ZM18.8283 3.38313V8.79986L10.8866 13.385L6.19555 10.6767L18.8283 3.38313ZM5.0236 12.7065L9.71462 15.4149V24.5852L5.0236 27.2936V12.7065ZM18.8283 36.617L6.19548 29.3234L10.8865 26.615L18.8282 31.2001V36.617H18.8283ZM12.0585 24.5851V15.4149L20.0003 10.8297L27.942 15.4149V24.5852L20.0003 29.1703L12.0585 24.5851ZM21.1721 36.617V31.2002L29.1139 26.6151L33.8049 29.3234L21.1721 36.617ZM34.9769 27.2936L30.2859 24.5852V15.4149L34.9769 12.7065V27.2936Z" fill="#006FBA"/>
</svg>
