<svg width="41" height="41" viewBox="0 0 41 41" fill="none" xmlns="http://www.w3.org/2000/svg">
<path d="M6.75067 10.6685L13.0923 16.2485L18.7423 9.29179C18.9005 9.0973 19.1006 8.94102 19.3276 8.83457C19.5546 8.72812 19.8026 8.67426 20.0533 8.67698C20.304 8.6797 20.5509 8.73895 20.7755 8.8503C21.0001 8.96165 21.1967 9.12225 21.3507 9.32012L26.7423 16.2468L33.289 10.5868C33.5461 10.365 33.8648 10.227 34.2025 10.1913C34.5401 10.1555 34.8807 10.2238 35.1785 10.387C35.4763 10.5501 35.7171 10.8003 35.8689 11.1041C36.0206 11.4078 36.0759 11.7507 36.0273 12.0868L33.5273 29.3318H6.539L4.00067 12.1651C3.95025 11.8272 4.00491 11.4819 4.15725 11.1761C4.3096 10.8702 4.55226 10.6186 4.85237 10.4553C5.15248 10.2919 5.49555 10.2248 5.83509 10.2629C6.17464 10.301 6.49426 10.4426 6.75067 10.6685ZM6.669 30.9985H33.3357V32.6651C33.3357 33.1071 33.1601 33.5311 32.8475 33.8436C32.535 34.1562 32.111 34.3318 31.669 34.3318H8.33567C7.89364 34.3318 7.46972 34.1562 7.15716 33.8436C6.8446 33.5311 6.669 33.1071 6.669 32.6651V30.9985Z" fill="white"/>
</svg>
