<svg width="24" height="24" viewBox="0 0 24 24" fill="none" xmlns="http://www.w3.org/2000/svg">
<path d="M20.267 11.7333C19.067 10.4667 17.467 9.60001 15.8004 9.26667C15.067 9.06667 14.3337 8.93334 13.6004 8.86667C15.467 6.66667 15.1337 3.33334 12.9337 1.46667C10.7337 -0.399994 7.40037 -0.0666609 5.5337 2.13334C3.66704 4.33334 4.00037 7.66667 6.20037 9.53334C6.60037 9.86667 7.00037 10.1333 7.40037 10.2667V11.7333L6.3337 10.7333C5.40037 9.8 3.86704 9.8 2.86704 10.7333C1.9337 11.6667 1.86704 13.1333 2.80037 14.0667L5.86704 17.6667C6.00037 18.6 6.3337 19.4667 6.80037 20.2667C7.1337 20.8667 7.60037 21.4667 8.06704 21.9333V23.2C8.06704 23.6 8.3337 23.8667 8.73371 23.8667H17.8004C18.1337 23.8667 18.467 23.5333 18.467 23.2V21.4667C19.7337 19.9333 20.4004 18 20.4004 16.0667V12.2C20.467 11.9333 20.4004 11.8 20.267 11.7333ZM5.60037 5.46667C5.60037 3.26667 7.40037 1.53334 9.60037 1.60001C11.8004 1.60001 13.5337 3.40001 13.467 5.60001C13.467 6.8 12.9337 7.86667 12.0004 8.60001V5.26667C11.9663 4.68892 11.7126 4.14607 11.2911 3.74942C10.8697 3.35276 10.3125 3.13234 9.73371 3.13334C8.53371 3.06667 7.46704 4.06667 7.46704 5.26667V8.73334C6.3337 8.06667 5.66704 6.80001 5.60037 5.46667ZM19.1337 16C19.2004 17.7333 18.6004 19.4 17.467 20.7333C17.3337 20.8667 17.2004 21 17.2004 21.2V22.6H9.46704V21.6667C9.46704 21.4667 9.3337 21.2667 9.20037 21.1333C8.73371 20.7333 8.3337 20.2667 8.00037 19.6667C7.60037 19 7.3337 18.2 7.20037 17.4C7.20037 17.2667 7.13371 17.1333 7.06704 17L3.86704 13.2C3.66704 13 3.5337 12.7333 3.5337 12.4C3.5337 12.1333 3.66704 11.8 3.86704 11.6C4.3337 11.2 5.00037 11.2 5.46704 11.6L7.40037 13.5333V15.5333L8.66704 14.8667V5.26667C8.73371 4.80001 9.1337 4.40001 9.66704 4.46667C10.1337 4.46667 10.6004 4.80001 10.6004 5.26667V12.9333L11.9337 13.2V10.1333C12.0004 10.0667 12.067 10.0667 12.1337 10C12.6004 10 13.067 10.0667 13.5337 10.1333V13.5333L14.6004 13.7333V10.2667L15.4004 10.4667C15.7337 10.5333 16.067 10.6667 16.4004 10.8V14.1333L17.467 14.3333V11.2667C18.067 11.5333 18.6004 11.9333 19.067 12.4L19.1337 16Z" fill="white"/>
</svg>
