<svg width="24" height="24" viewBox="0 0 24 24" fill="none" xmlns="http://www.w3.org/2000/svg">
<path d="M1.0849 18L5.6929 5.4H8.2849L12.8929 18H10.4449L9.4369 15.084H4.5229L3.4969 18H1.0849ZM5.1529 13.284H8.8069L6.9709 8.046L5.1529 13.284ZM17.1884 18.216C16.4204 18.216 15.7904 18.096 15.2984 17.856C14.8064 17.604 14.4404 17.274 14.2004 16.866C13.9604 16.458 13.8404 16.008 13.8404 15.516C13.8404 14.688 14.1644 14.016 14.8124 13.5C15.4604 12.984 16.4324 12.726 17.7284 12.726H19.9964V12.51C19.9964 11.898 19.8224 11.448 19.4744 11.16C19.1264 10.872 18.6944 10.728 18.1784 10.728C17.7104 10.728 17.3024 10.842 16.9544 11.07C16.6064 11.286 16.3904 11.61 16.3064 12.042H14.0564C14.1164 11.394 14.3324 10.83 14.7044 10.35C15.0884 9.87 15.5804 9.504 16.1804 9.252C16.7804 8.988 17.4524 8.856 18.1964 8.856C19.4684 8.856 20.4704 9.174 21.2024 9.81C21.9344 10.446 22.3004 11.346 22.3004 12.51V18H20.3384L20.1224 16.56C19.8584 17.04 19.4864 17.436 19.0064 17.748C18.5384 18.06 17.9324 18.216 17.1884 18.216ZM17.7104 16.416C18.3704 16.416 18.8804 16.2 19.2404 15.768C19.6124 15.336 19.8464 14.802 19.9424 14.166H17.9804C17.3684 14.166 16.9304 14.28 16.6664 14.508C16.4024 14.724 16.2704 14.994 16.2704 15.318C16.2704 15.666 16.4024 15.936 16.6664 16.128C16.9304 16.32 17.2784 16.416 17.7104 16.416Z" fill="white"/>
</svg>
