<svg width="24" height="24" viewBox="0 0 24 24" fill="none" xmlns="http://www.w3.org/2000/svg">
<path fill-rule="evenodd" clip-rule="evenodd" d="M17.5614 21.0009C17.4034 21.0009 17.2444 20.9639 17.0984 20.8879L11.9994 18.2239L6.90138 20.8879C6.56338 21.0629 6.15538 21.0329 5.84938 20.8089C5.54138 20.5849 5.38838 20.2059 5.45338 19.8309L6.42438 14.2029L2.30438 10.2179C2.03038 9.9529 1.93138 9.5549 2.04838 9.1909C2.16538 8.8289 2.47838 8.5639 2.85638 8.5099L8.55638 7.6819L11.1044 2.5559C11.4424 1.8759 12.5574 1.8759 12.8954 2.5559L15.4434 7.6819L21.1434 8.5099C21.5214 8.5639 21.8344 8.8289 21.9514 9.1909C22.0684 9.5549 21.9694 9.9529 21.6954 10.2179L17.5754 14.2029L18.5464 19.8309C18.6114 20.2059 18.4574 20.5849 18.1504 20.8089C17.9764 20.9369 17.7694 21.0009 17.5614 21.0009" fill="#03133D"/>
<mask id="mask0_1919_32011" style="mask-type:alpha" maskUnits="userSpaceOnUse" x="2" y="2" width="20" height="20">
<path fill-rule="evenodd" clip-rule="evenodd" d="M17.5614 21.0009C17.4034 21.0009 17.2444 20.9639 17.0984 20.8879L11.9994 18.2239L6.90138 20.8879C6.56338 21.0629 6.15538 21.0329 5.84938 20.8089C5.54138 20.5849 5.38838 20.2059 5.45338 19.8309L6.42438 14.2029L2.30438 10.2179C2.03038 9.9529 1.93138 9.5549 2.04838 9.1909C2.16538 8.8289 2.47838 8.5639 2.85638 8.5099L8.55638 7.6819L11.1044 2.5559C11.4424 1.8759 12.5574 1.8759 12.8954 2.5559L15.4434 7.6819L21.1434 8.5099C21.5214 8.5639 21.8344 8.8289 21.9514 9.1909C22.0684 9.5549 21.9694 9.9529 21.6954 10.2179L17.5754 14.2029L18.5464 19.8309C18.6114 20.2059 18.4574 20.5849 18.1504 20.8089C17.9764 20.9369 17.7694 21.0009 17.5614 21.0009" fill="white"/>
</mask>
<g mask="url(#mask0_1919_32011)">
<rect width="24" height="24" fill="white"/>
</g>
</svg>
