<svg width="16" height="18" viewBox="0 0 16 18" fill="none" xmlns="http://www.w3.org/2000/svg">
<path fill-rule="evenodd" clip-rule="evenodd" d="M8.39505 17.9051C10.0068 17.0871 16 13.6595 16 7.91712C16 3.54462 12.4183 0 8 0C3.58172 0 0 3.54462 0 7.91712C0 13.6595 5.99317 17.0871 7.60495 17.9051C7.85656 18.0328 8.14345 18.0328 8.39505 17.9051ZM7.99986 11.3102C9.89341 11.3102 11.4284 9.79107 11.4284 7.91714C11.4284 6.0432 9.89341 4.52408 7.99986 4.52408C6.10631 4.52408 4.57129 6.0432 4.57129 7.91714C4.57129 9.79107 6.10631 11.3102 7.99986 11.3102Z" fill="#B8BDC9"/>
</svg>
