<svg width="24" height="24" viewBox="0 0 24 24" fill="none" xmlns="http://www.w3.org/2000/svg">
<path fill-rule="evenodd" clip-rule="evenodd" d="M15 12C13.8954 12 13 11.1046 13 10C13 9.447 12.552 9 12 9C11.448 9 11 9.447 11 10V13C11 13.553 11.448 14 12 14H15C15.552 14 16 13.553 16 13C16 12.447 15.552 12 15 12ZM12 19.75C8.278 19.75 5.25 16.722 5.25 13C5.25 9.278 8.278 6.25 12 6.25C15.722 6.25 18.75 9.278 18.75 13C18.75 16.722 15.722 19.75 12 19.75ZM12.988 4.058C12.99 4.037 13 4.021 13 4C13 3.44772 13.4477 3 14 3C14.552 3 15 2.553 15 2C15 1.447 14.552 1 14 1H10C9.448 1 9 1.447 9 2C9 2.553 9.448 3 10 3C10.5523 3 11 3.44772 11 4C11 4.03295 10.9855 4.06089 10.9528 4.0647C6.4822 4.58559 3 8.39234 3 13C3 17.963 7.038 22 12 22C16.962 22 21 17.963 21 13C21 8.372 17.487 4.552 12.988 4.058Z" fill="url(#paint0_linear_2418_176155)"/>
<defs>
<linearGradient id="paint0_linear_2418_176155" x1="3.97452" y1="-12.8871" x2="30.8162" y2="-3.21531" gradientUnits="userSpaceOnUse">
<stop stop-color="#6A36FF"/>
<stop offset="1" stop-color="#AC5FE6"/>
</linearGradient>
</defs>
</svg>
