<svg width="32" height="32" viewBox="0 0 32 32" fill="none" xmlns="http://www.w3.org/2000/svg">
<path fill-rule="evenodd" clip-rule="evenodd" d="M27.99 9.284C27.9873 9.188 27.9593 9.09733 27.934 9.00533C27.914 8.928 27.9047 8.84933 27.8713 8.77867C27.8407 8.70933 27.7887 8.65333 27.7433 8.58933C27.6873 8.508 27.6367 8.42667 27.5647 8.36C27.5527 8.348 27.5473 8.332 27.534 8.32133C27.486 8.28 27.4273 8.26533 27.3753 8.232C27.2953 8.18 27.2167 8.12667 27.126 8.092C27.0367 8.06 26.9487 8.052 26.8567 8.03867C26.7927 8.02933 26.7353 8 26.6673 8H20.0007C19.2633 8 18.6673 8.59733 18.6673 9.33333C18.6673 10.0693 19.2633 10.6667 20.0007 10.6667H23.7687L18.3873 16.944L12.686 13.524C12.122 13.1827 11.3967 13.308 10.9753 13.8133L4.30866 21.8133C3.83799 22.3787 3.91399 23.22 4.47933 23.6907C4.72999 23.8987 5.03133 24 5.33266 24C5.71533 24 6.09399 23.8373 6.35799 23.52L12.294 16.3973L17.9807 19.8107C18.5393 20.1453 19.2567 20.028 19.6793 19.5347L25.334 12.9373V16C25.334 16.736 25.93 17.3333 26.6673 17.3333C27.4047 17.3333 28.0007 16.736 28.0007 16V9.33333C28.0007 9.316 27.9913 9.30133 27.99 9.284Z" fill="#03133D"/>
<mask id="mask0_1919_31979" style="mask-type:alpha" maskUnits="userSpaceOnUse" x="4" y="8" width="24" height="16">
<path fill-rule="evenodd" clip-rule="evenodd" d="M27.99 9.284C27.9873 9.188 27.9593 9.09733 27.934 9.00533C27.914 8.928 27.9047 8.84933 27.8713 8.77867C27.8407 8.70933 27.7887 8.65333 27.7433 8.58933C27.6873 8.508 27.6367 8.42667 27.5647 8.36C27.5527 8.348 27.5473 8.332 27.534 8.32133C27.486 8.28 27.4273 8.26533 27.3753 8.232C27.2953 8.18 27.2167 8.12667 27.126 8.092C27.0367 8.06 26.9487 8.052 26.8567 8.03867C26.7927 8.02933 26.7353 8 26.6673 8H20.0007C19.2633 8 18.6673 8.59733 18.6673 9.33333C18.6673 10.0693 19.2633 10.6667 20.0007 10.6667H23.7687L18.3873 16.944L12.686 13.524C12.122 13.1827 11.3967 13.308 10.9753 13.8133L4.30866 21.8133C3.83799 22.3787 3.91399 23.22 4.47933 23.6907C4.72999 23.8987 5.03133 24 5.33266 24C5.71533 24 6.09399 23.8373 6.35799 23.52L12.294 16.3973L17.9807 19.8107C18.5393 20.1453 19.2567 20.028 19.6793 19.5347L25.334 12.9373V16C25.334 16.736 25.93 17.3333 26.6673 17.3333C27.4047 17.3333 28.0007 16.736 28.0007 16V9.33333C28.0007 9.316 27.9913 9.30133 27.99 9.284Z" fill="white"/>
</mask>
<g mask="url(#mask0_1919_31979)">
<rect width="32" height="32" fill="white"/>
</g>
</svg>
