<svg width="40" height="40" viewBox="0 0 40 40" fill="none" xmlns="http://www.w3.org/2000/svg">
<rect width="40" height="40" rx="20" fill="url(#paint0_linear_2418_174509)"/>
<path fill-rule="evenodd" clip-rule="evenodd" d="M25.9998 22.9999C25.7738 22.9999 25.5468 22.9239 25.3597 22.7679L19.9887 18.2919L14.6267 22.6069C14.1977 22.9539 13.5677 22.8859 13.2207 22.4549C12.8747 22.0249 12.9427 21.3959 13.3737 21.0489L19.3737 16.2209C19.7437 15.9219 20.2747 15.9259 20.6407 16.2319L26.6407 21.2319C27.0647 21.5849 27.1217 22.2159 26.7688 22.6399C26.5708 22.8769 26.2867 22.9999 25.9998 22.9999Z" fill="white"/>
<mask id="mask0_2418_174509" style="mask-type:alpha" maskUnits="userSpaceOnUse" x="13" y="15" width="14" height="8">
<path fill-rule="evenodd" clip-rule="evenodd" d="M25.9998 22.9999C25.7738 22.9999 25.5468 22.9239 25.3597 22.7679L19.9887 18.2919L14.6267 22.6069C14.1977 22.9539 13.5677 22.8859 13.2207 22.4549C12.8747 22.0249 12.9427 21.3959 13.3737 21.0489L19.3737 16.2209C19.7437 15.9219 20.2747 15.9259 20.6407 16.2319L26.6407 21.2319C27.0647 21.5849 27.1217 22.2159 26.7688 22.6399C26.5708 22.8769 26.2867 22.9999 25.9998 22.9999Z" fill="white"/>
</mask>
<g mask="url(#mask0_2418_174509)">
<rect x="8" y="8" width="24" height="24" fill="white"/>
</g>
<defs>
<linearGradient id="paint0_linear_2418_174509" x1="2.16561" y1="-26.4516" x2="59.4372" y2="-2.37569" gradientUnits="userSpaceOnUse">
<stop stop-color="#6A36FF"/>
<stop offset="1" stop-color="#AC5FE6"/>
</linearGradient>
</defs>
</svg>
