<svg width="20" height="20" viewBox="0 0 20 20" fill="none" xmlns="http://www.w3.org/2000/svg">
<path fill-rule="evenodd" clip-rule="evenodd" d="M14.9999 12.5001C14.8115 12.5001 14.6224 12.4367 14.4665 12.3067L9.99071 8.57672L5.52237 12.1726C5.16487 12.4617 4.63987 12.4051 4.35071 12.0459C4.06237 11.6876 4.11904 11.1634 4.47821 10.8742L9.47821 6.85089C9.78654 6.60172 10.229 6.60506 10.534 6.86006L15.534 11.0267C15.8874 11.3209 15.9349 11.8467 15.6407 12.2001C15.4757 12.3976 15.239 12.5001 14.9999 12.5001Z" fill="#03133D"/>
<mask id="mask0_3359_21046" style="mask-type:alpha" maskUnits="userSpaceOnUse" x="4" y="6" width="12" height="7">
<path fill-rule="evenodd" clip-rule="evenodd" d="M14.9999 12.5001C14.8115 12.5001 14.6224 12.4367 14.4665 12.3067L9.99071 8.57672L5.52237 12.1726C5.16487 12.4617 4.63987 12.4051 4.35071 12.0459C4.06237 11.6876 4.11904 11.1634 4.47821 10.8742L9.47821 6.85089C9.78654 6.60172 10.229 6.60506 10.534 6.86006L15.534 11.0267C15.8874 11.3209 15.9349 11.8467 15.6407 12.2001C15.4757 12.3976 15.239 12.5001 14.9999 12.5001Z" fill="white"/>
</mask>
<g mask="url(#mask0_3359_21046)">
<rect width="20" height="20" fill="#C58DF0"/>
</g>
</svg>
