<svg width="32" height="32" viewBox="0 0 32 32" fill="none" xmlns="http://www.w3.org/2000/svg">
<path fill-rule="evenodd" clip-rule="evenodd" d="M19.4896 26.0693C20.8883 24.072 22.3429 21.1346 22.6336 17.3333H26.5736C26.0629 21.4026 23.2549 24.76 19.4896 26.0693ZM5.42578 17.3333H9.41511C9.68978 21.1493 11.1258 24.0746 12.5431 26.0813C8.76045 24.7786 5.93911 21.4146 5.42578 17.3333ZM12.5844 5.90523C11.1818 7.90257 9.71378 10.8492 9.42045 14.6666H5.42578C5.94045 10.5706 8.78178 7.1959 12.5844 5.90523ZM12.1058 14.6666C12.5138 10.3039 14.7458 7.26659 16.0351 5.86259C17.3685 7.29059 19.5658 10.2999 19.9458 14.6666H12.1058ZM12.1071 17.3333H19.9498C19.5418 21.7026 17.3044 24.74 16.0164 26.144C14.6204 24.664 12.4791 21.696 12.1071 17.3333ZM26.5735 14.6667H22.6375C22.3642 10.868 20.9442 7.95204 19.5335 5.94804C23.2775 7.26804 26.0655 10.6134 26.5735 14.6667ZM29.3337 16C29.3337 8.66129 23.3723 2.69063 16.0377 2.66929C16.0323 2.66929 16.027 2.66796 16.0203 2.66796C16.015 2.66796 16.007 2.66663 16.0003 2.66663C8.64833 2.66663 2.66699 8.64929 2.66699 16C2.66699 23.352 8.64833 29.3333 16.0003 29.3333C16.0083 29.3333 16.015 29.332 16.0203 29.332C16.023 29.332 16.0243 29.3333 16.027 29.3333C16.031 29.3333 16.035 29.3306 16.0377 29.3306C23.3723 29.3106 29.3337 23.3386 29.3337 16Z" fill="#03133D"/>
<mask id="mask0_1437_17752" style="mask-type:alpha" maskUnits="userSpaceOnUse" x="2" y="2" width="28" height="28">
<path fill-rule="evenodd" clip-rule="evenodd" d="M19.4896 26.0693C20.8883 24.072 22.3429 21.1346 22.6336 17.3333H26.5736C26.0629 21.4026 23.2549 24.76 19.4896 26.0693ZM5.42578 17.3333H9.41511C9.68978 21.1493 11.1258 24.0746 12.5431 26.0813C8.76045 24.7786 5.93911 21.4146 5.42578 17.3333ZM12.5844 5.90523C11.1818 7.90257 9.71378 10.8492 9.42045 14.6666H5.42578C5.94045 10.5706 8.78178 7.1959 12.5844 5.90523ZM12.1058 14.6666C12.5138 10.3039 14.7458 7.26659 16.0351 5.86259C17.3685 7.29059 19.5658 10.2999 19.9458 14.6666H12.1058ZM12.1071 17.3333H19.9498C19.5418 21.7026 17.3044 24.74 16.0164 26.144C14.6204 24.664 12.4791 21.696 12.1071 17.3333ZM26.5735 14.6667H22.6375C22.3642 10.868 20.9442 7.95204 19.5335 5.94804C23.2775 7.26804 26.0655 10.6134 26.5735 14.6667ZM29.3337 16C29.3337 8.66129 23.3723 2.69063 16.0377 2.66929C16.0323 2.66929 16.027 2.66796 16.0203 2.66796C16.015 2.66796 16.007 2.66663 16.0003 2.66663C8.64833 2.66663 2.66699 8.64929 2.66699 16C2.66699 23.352 8.64833 29.3333 16.0003 29.3333C16.0083 29.3333 16.015 29.332 16.0203 29.332C16.023 29.332 16.0243 29.3333 16.027 29.3333C16.031 29.3333 16.035 29.3306 16.0377 29.3306C23.3723 29.3106 29.3337 23.3386 29.3337 16Z" fill="white"/>
</mask>
<g mask="url(#mask0_1437_17752)">
<rect width="32" height="32" fill="white"/>
</g>
</svg>
