<svg width="32" height="32" viewBox="0 0 32 32" fill="none" xmlns="http://www.w3.org/2000/svg">
<path fill-rule="evenodd" clip-rule="evenodd" d="M10.7692 26.6671C20.4306 26.6671 26.0199 19.1657 26.0199 12.0471C26.0199 11.8511 27.3932 10.6724 27.9812 8.21507C28.1012 7.71641 27.6159 7.32307 27.1586 7.53241C25.9852 8.07107 24.7946 7.64441 24.2772 7.03107C22.2879 4.86174 18.9612 4.75774 16.8452 6.79774C15.4812 8.11374 14.9026 10.0737 15.3252 11.9444C10.8572 12.2631 7.78924 10.1457 5.26657 7.24307C4.94124 6.86574 4.33724 7.06441 4.26924 7.56307C3.89591 10.3391 3.77858 17.0884 10.4666 20.9644C9.30524 22.6337 7.03191 23.6191 4.50124 24.0417C3.94124 24.1364 3.80791 24.9124 4.31991 25.1631C6.32524 26.1497 8.52924 26.6657 10.7692 26.6631" fill="#03133D"/>
<mask id="mask0_1437_17756" style="mask-type:alpha" maskUnits="userSpaceOnUse" x="4" y="5" width="24" height="22">
<path fill-rule="evenodd" clip-rule="evenodd" d="M10.7692 26.6671C20.4306 26.6671 26.0199 19.1657 26.0199 12.0471C26.0199 11.8511 27.3932 10.6724 27.9812 8.21507C28.1012 7.71641 27.6159 7.32307 27.1586 7.53241C25.9852 8.07107 24.7946 7.64441 24.2772 7.03107C22.2879 4.86174 18.9612 4.75774 16.8452 6.79774C15.4812 8.11374 14.9026 10.0737 15.3252 11.9444C10.8572 12.2631 7.78924 10.1457 5.26657 7.24307C4.94124 6.86574 4.33724 7.06441 4.26924 7.56307C3.89591 10.3391 3.77858 17.0884 10.4666 20.9644C9.30524 22.6337 7.03191 23.6191 4.50124 24.0417C3.94124 24.1364 3.80791 24.9124 4.31991 25.1631C6.32524 26.1497 8.52924 26.6657 10.7692 26.6631" fill="white"/>
</mask>
<g mask="url(#mask0_1437_17756)">
<rect width="32" height="32" fill="white"/>
</g>
</svg>
